<svg xmlns="http://www.w3.org/2000/svg" width="204.25" height="343.208" viewBox="0 0 204.25 343.208">
  <g id="Grupo_154218" data-name="Grupo 154218" transform="translate(-1018.154 -187.321)">
    <g id="Grupo_154179" data-name="Grupo 154179">
      <g id="Grupo_154177" data-name="Grupo 154177">
        <path id="Trazado_161957" data-name="Trazado 161957" d="M1219.107,457.2l0-201.356,3.3-1.906V455.3Z" fill="#3a3a3a"/>
        <path id="Trazado_161958" data-name="Trazado 161958" d="M1219.107,457.2l-3.986-2.267V253.541l3.986,2.3Z" fill="#4d4d4d"/>
      </g>
      <g id="Grupo_154178" data-name="Grupo 154178">
        <path id="Trazado_161959" data-name="Trazado 161959" d="M1148.938,416.8l0-201.356,3.3-1.906V414.9Z" fill="#3a3a3a"/>
        <path id="Trazado_161960" data-name="Trazado 161960" d="M1148.938,416.8l-3.985-2.267V213.139l3.985,2.3Z" fill="#4d4d4d"/>
        <path id="Trazado_161961" data-name="Trazado 161961" d="M1222.4,253.936l-3.3,1.906-3.986-2.3,3.3-1.895Z" fill="#a3a3a3"/>
        <path id="Trazado_161962" data-name="Trazado 161962" d="M1152.234,213.534l-3.3,1.906-3.985-2.3,3.3-1.895Z" fill="#a3a3a3"/>
      </g>
      <path id="Trazado_161963" data-name="Trazado 161963" d="M1146.244,409.413l2.694,2.694,68.421-54.373-1.253-3.993Z" fill="#4d4d4d"/>
      <path id="Trazado_161964" data-name="Trazado 161964" d="M1216.813,448.174l-.634,3.849-68.834-133.808,1.591-2.336Z" fill="#4d4d4d"/>
      <path id="Trazado_161965" data-name="Trazado 161965" d="M1146.244,314.5l2.694,2.694,68.421-54.373-1.253-3.993Z" fill="#4d4d4d"/>
      <path id="Trazado_161966" data-name="Trazado 161966" d="M1216.813,353.261l-.634,3.849L1147.345,223.3l1.591-2.336Z" fill="#4d4d4d"/>
    </g>
    <g id="Grupo_154180" data-name="Grupo 154180">
      <path id="Trazado_161967" data-name="Trazado 161967" d="M1147.98,402.835l70.035,40.634-126.051,72.854-70.169-40.572Z" fill="#ed8e2f"/>
      <path id="Trazado_161968" data-name="Trazado 161968" d="M1091.964,521.505v-5.183l-70.169-40.572v5.171Z" fill="#c96a1c"/>
      <path id="Trazado_161969" data-name="Trazado 161969" d="M1218.015,443.469v5.2l-126.051,72.837v-5.183Z" fill="#d87923"/>
    </g>
    <g id="Grupo_154183" data-name="Grupo 154183">
      <path id="Trazado_161970" data-name="Trazado 161970" d="M1138.8,444.185l.009-32.716-26.141-15.112v32.679Z" fill="#dba763"/>
      <path id="Trazado_161971" data-name="Trazado 161971" d="M1138.8,444.185l.009-32.716,26.141-15.112v32.679Z" fill="#e8b679"/>
      <path id="Trazado_161972" data-name="Trazado 161972" d="M1161.559,426.859V401.738l.766-.443v26.119l-20.9,12.108v-1Z" fill="#cc8c46"/>
      <path id="Trazado_161973" data-name="Trazado 161973" d="M1141.424,438.523l.007-25.149,20.127-11.635v25.121Z" fill="#dba763"/>
      <path id="Trazado_161974" data-name="Trazado 161974" d="M1149.034,432.178l-5.612,3.251,0-8.448,5.609-3.243Z" fill="#fff"/>
      <g id="Grupo_154181" data-name="Grupo 154181">
        <path id="Trazado_161975" data-name="Trazado 161975" d="M1116.053,426.859V401.738l-.766-.443v26.119l20.9,12.108v-1Z" fill="#bf7e3d"/>
        <path id="Trazado_161976" data-name="Trazado 161976" d="M1136.188,438.523l-.007-25.149-20.127-11.635v25.121Z" fill="#cc8c46"/>
      </g>
      <path id="Trazado_161977" data-name="Trazado 161977" d="M1164.949,396.357l-26.141,15.112-26.141-15.112,26.132-15.109Z" fill="#ffe1c0"/>
      <g id="Grupo_154182" data-name="Grupo 154182">
        <path id="Trazado_161978" data-name="Trazado 161978" d="M1118.092,396.663l-.866-.5,21.566-12.469,21.581,12.469-.866.5-20.714-11.968Z" fill="#dba763"/>
        <path id="Trazado_161979" data-name="Trazado 161979" d="M1118.092,396.663l20.7-11.968,20.714,11.968L1138.8,408.634Z" fill="#e8b679"/>
      </g>
      <path id="Trazado_161980" data-name="Trazado 161980" d="M1121.5,407.5v8.445l-4.313-2.5v-8.44Z" fill="#4d4d4d"/>
      <path id="Trazado_161981" data-name="Trazado 161981" d="M1127.894,411.127v8.445l-4.313-2.5v-8.44Z" fill="#4d4d4d"/>
    </g>
    <g id="Grupo_154186" data-name="Grupo 154186">
      <path id="Trazado_161982" data-name="Trazado 161982" d="M1171.161,462.77l.009-32.716-26.141-15.112V447.62Z" fill="#dba763"/>
      <path id="Trazado_161983" data-name="Trazado 161983" d="M1171.161,462.77l.009-32.716,26.141-15.112V447.62Z" fill="#e8b679"/>
      <path id="Trazado_161984" data-name="Trazado 161984" d="M1193.921,445.444V420.323l.766-.443V446l-20.9,12.108v-1Z" fill="#cc8c46"/>
      <path id="Trazado_161985" data-name="Trazado 161985" d="M1173.786,457.108l.007-25.149,20.127-11.635v25.121Z" fill="#dba763"/>
      <path id="Trazado_161986" data-name="Trazado 161986" d="M1181.4,450.762l-5.612,3.251,0-8.448,5.609-3.243Z" fill="#fff"/>
      <g id="Grupo_154184" data-name="Grupo 154184">
        <path id="Trazado_161987" data-name="Trazado 161987" d="M1148.416,445.444V420.323l-.766-.443V446l20.9,12.108v-1Z" fill="#bf7e3d"/>
        <path id="Trazado_161988" data-name="Trazado 161988" d="M1168.55,457.108l-.007-25.149-20.127-11.635v25.121Z" fill="#cc8c46"/>
      </g>
      <path id="Trazado_161989" data-name="Trazado 161989" d="M1197.311,414.941l-26.141,15.112-26.141-15.112,26.132-15.109Z" fill="#ffe1c0"/>
      <g id="Grupo_154185" data-name="Grupo 154185">
        <path id="Trazado_161990" data-name="Trazado 161990" d="M1150.454,415.247l-.866-.5,21.566-12.469,21.581,12.469-.866.5-20.714-11.968Z" fill="#dba763"/>
        <path id="Trazado_161991" data-name="Trazado 161991" d="M1150.454,415.247l20.7-11.968,20.714,11.968-20.707,11.971Z" fill="#e8b679"/>
      </g>
      <path id="Trazado_161992" data-name="Trazado 161992" d="M1153.858,426.085v8.446l-4.313-2.5v-8.44Z" fill="#4d4d4d"/>
      <path id="Trazado_161993" data-name="Trazado 161993" d="M1160.256,429.712v8.446l-4.313-2.5v-8.44Z" fill="#4d4d4d"/>
    </g>
    <g id="Grupo_154189" data-name="Grupo 154189">
      <path id="Trazado_161994" data-name="Trazado 161994" d="M1102.2,464.054l.009-32.716-26.141-15.112V448.9Z" fill="#dba763"/>
      <path id="Trazado_161995" data-name="Trazado 161995" d="M1102.2,464.054l.009-32.716,26.141-15.112V448.9Z" fill="#e8b679"/>
      <path id="Trazado_161996" data-name="Trazado 161996" d="M1124.96,446.728V421.607l.766-.443v26.119l-20.9,12.108v-1Z" fill="#cc8c46"/>
      <path id="Trazado_161997" data-name="Trazado 161997" d="M1104.826,458.392l.007-25.149,20.127-11.636v25.121Z" fill="#dba763"/>
      <path id="Trazado_161998" data-name="Trazado 161998" d="M1112.435,452.046l-5.612,3.251,0-8.448,5.609-3.243Z" fill="#fff"/>
      <g id="Grupo_154187" data-name="Grupo 154187">
        <path id="Trazado_161999" data-name="Trazado 161999" d="M1079.455,446.728V421.607l-.766-.443v26.119l20.9,12.108v-1Z" fill="#bf7e3d"/>
        <path id="Trazado_162000" data-name="Trazado 162000" d="M1099.589,458.392l-.007-25.149-20.127-11.636v25.121Z" fill="#cc8c46"/>
      </g>
      <path id="Trazado_162001" data-name="Trazado 162001" d="M1128.351,416.225l-26.141,15.112-26.141-15.112,26.132-15.109Z" fill="#ffe1c0"/>
      <g id="Grupo_154188" data-name="Grupo 154188">
        <path id="Trazado_162002" data-name="Trazado 162002" d="M1081.493,416.531l-.866-.5,21.566-12.469,21.581,12.469-.866.5-20.714-11.968Z" fill="#dba763"/>
        <path id="Trazado_162003" data-name="Trazado 162003" d="M1081.493,416.531l20.7-11.968,20.714,11.968L1102.2,428.5Z" fill="#e8b679"/>
      </g>
      <path id="Trazado_162004" data-name="Trazado 162004" d="M1084.9,427.369v8.445l-4.313-2.5v-8.44Z" fill="#4d4d4d"/>
      <path id="Trazado_162005" data-name="Trazado 162005" d="M1091.3,431v8.446l-4.313-2.5V428.5Z" fill="#4d4d4d"/>
    </g>
    <g id="Grupo_154192" data-name="Grupo 154192">
      <path id="Trazado_162006" data-name="Trazado 162006" d="M1134.563,482.638l.009-32.716-26.141-15.112v32.679Z" fill="#dba763"/>
      <path id="Trazado_162007" data-name="Trazado 162007" d="M1134.563,482.638l.009-32.716,26.141-15.112v32.679Z" fill="#e8b679"/>
      <path id="Trazado_162008" data-name="Trazado 162008" d="M1157.322,465.312V440.191l.766-.443v26.119l-20.9,12.108v-1Z" fill="#cc8c46"/>
      <path id="Trazado_162009" data-name="Trazado 162009" d="M1137.188,476.976l.007-25.149,20.127-11.635v25.121Z" fill="#dba763"/>
      <path id="Trazado_162010" data-name="Trazado 162010" d="M1144.8,470.631l-5.612,3.251,0-8.448,5.609-3.243Z" fill="#fff"/>
      <g id="Grupo_154190" data-name="Grupo 154190">
        <path id="Trazado_162011" data-name="Trazado 162011" d="M1111.817,465.312V440.191l-.766-.443v26.119l20.9,12.108v-1Z" fill="#bf7e3d"/>
        <path id="Trazado_162012" data-name="Trazado 162012" d="M1131.951,476.976l-.007-25.149-20.127-11.635v25.121Z" fill="#cc8c46"/>
      </g>
      <path id="Trazado_162013" data-name="Trazado 162013" d="M1160.713,434.81l-26.141,15.112-26.141-15.112,26.132-15.109Z" fill="#ffe1c0"/>
      <g id="Grupo_154191" data-name="Grupo 154191">
        <path id="Trazado_162014" data-name="Trazado 162014" d="M1113.855,435.116l-.866-.5,21.566-12.469,21.58,12.469-.866.5-20.714-11.968Z" fill="#dba763"/>
        <path id="Trazado_162015" data-name="Trazado 162015" d="M1113.855,435.116l20.7-11.968,20.714,11.968-20.707,11.971Z" fill="#e8b679"/>
      </g>
      <path id="Trazado_162016" data-name="Trazado 162016" d="M1117.259,445.954V454.4l-4.313-2.5v-8.44Z" fill="#4d4d4d"/>
      <path id="Trazado_162017" data-name="Trazado 162017" d="M1123.658,449.58v8.445l-4.313-2.5v-8.44Z" fill="#4d4d4d"/>
    </g>
    <g id="Grupo_154195" data-name="Grupo 154195">
      <path id="Trazado_162018" data-name="Trazado 162018" d="M1063.683,486.23l.009-32.716L1037.551,438.4v32.68Z" fill="#dba763"/>
      <path id="Trazado_162019" data-name="Trazado 162019" d="M1063.683,486.23l.009-32.716,26.141-15.112v32.68Z" fill="#e8b679"/>
      <path id="Trazado_162020" data-name="Trazado 162020" d="M1086.442,468.9V443.783l.766-.443V469.46l-20.9,12.108v-1Z" fill="#cc8c46"/>
      <path id="Trazado_162021" data-name="Trazado 162021" d="M1066.308,480.568l.007-25.149,20.127-11.636V468.9Z" fill="#dba763"/>
      <path id="Trazado_162022" data-name="Trazado 162022" d="M1073.917,474.223l-5.612,3.251,0-8.448,5.609-3.243Z" fill="#fff"/>
      <g id="Grupo_154193" data-name="Grupo 154193">
        <path id="Trazado_162023" data-name="Trazado 162023" d="M1040.937,468.9V443.783l-.766-.443V469.46l20.9,12.108v-1Z" fill="#bf7e3d"/>
        <path id="Trazado_162024" data-name="Trazado 162024" d="M1061.072,480.568l-.007-25.149-20.127-11.636V468.9Z" fill="#cc8c46"/>
      </g>
      <path id="Trazado_162025" data-name="Trazado 162025" d="M1089.833,438.4l-26.141,15.112L1037.551,438.4l26.132-15.109Z" fill="#ffe1c0"/>
      <g id="Grupo_154194" data-name="Grupo 154194">
        <path id="Trazado_162026" data-name="Trazado 162026" d="M1042.975,438.708l-.866-.5,21.566-12.469,21.581,12.469-.866.5-20.714-11.968Z" fill="#dba763"/>
        <path id="Trazado_162027" data-name="Trazado 162027" d="M1042.975,438.708l20.7-11.968,20.714,11.968-20.707,11.971Z" fill="#e8b679"/>
      </g>
      <path id="Trazado_162028" data-name="Trazado 162028" d="M1046.379,449.546v8.446l-4.313-2.5v-8.44Z" fill="#4d4d4d"/>
      <path id="Trazado_162029" data-name="Trazado 162029" d="M1052.778,453.172v8.446l-4.313-2.5v-8.44Z" fill="#4d4d4d"/>
    </g>
    <g id="Grupo_154198" data-name="Grupo 154198">
      <path id="Trazado_162030" data-name="Trazado 162030" d="M1096.045,504.815l.009-32.717-26.141-15.112v32.679Z" fill="#dba763"/>
      <path id="Trazado_162031" data-name="Trazado 162031" d="M1096.045,504.815l.009-32.717,26.141-15.112v32.679Z" fill="#e8b679"/>
      <path id="Trazado_162032" data-name="Trazado 162032" d="M1118.8,487.488V462.368l.766-.443v26.119l-20.9,12.108v-1Z" fill="#cc8c46"/>
      <path id="Trazado_162033" data-name="Trazado 162033" d="M1098.67,499.152l.007-25.149,20.127-11.635v25.121Z" fill="#dba763"/>
      <path id="Trazado_162034" data-name="Trazado 162034" d="M1106.279,492.808l-5.612,3.251,0-8.448,5.609-3.243Z" fill="#fff"/>
      <g id="Grupo_154196" data-name="Grupo 154196">
        <path id="Trazado_162035" data-name="Trazado 162035" d="M1073.3,487.488V462.368l-.766-.443v26.119l20.9,12.108v-1Z" fill="#bf7e3d"/>
        <path id="Trazado_162036" data-name="Trazado 162036" d="M1093.433,499.152,1093.426,474,1073.3,462.368v25.121Z" fill="#cc8c46"/>
      </g>
      <path id="Trazado_162037" data-name="Trazado 162037" d="M1122.195,456.986,1096.054,472.1l-26.141-15.112,26.132-15.109Z" fill="#ffe1c0"/>
      <g id="Grupo_154197" data-name="Grupo 154197">
        <path id="Trazado_162038" data-name="Trazado 162038" d="M1075.338,457.293l-.866-.5,21.566-12.469,21.581,12.469-.866.5-20.715-11.968Z" fill="#dba763"/>
        <path id="Trazado_162039" data-name="Trazado 162039" d="M1075.338,457.293l20.7-11.968,20.715,11.968-20.707,11.971Z" fill="#e8b679"/>
      </g>
      <path id="Trazado_162040" data-name="Trazado 162040" d="M1078.741,468.13v8.445l-4.313-2.5v-8.44Z" fill="#4d4d4d"/>
      <path id="Trazado_162041" data-name="Trazado 162041" d="M1085.14,471.757V480.2l-4.313-2.5v-8.44Z" fill="#4d4d4d"/>
    </g>
    <g id="Grupo_154199" data-name="Grupo 154199">
      <path id="Trazado_162042" data-name="Trazado 162042" d="M1147.98,312.2l70.035,40.634-126.051,72.854-70.169-40.572Z" fill="#ed8e2f"/>
      <path id="Trazado_162043" data-name="Trazado 162043" d="M1091.964,430.874v-5.183l-70.169-40.572v5.171Z" fill="#c96a1c"/>
      <path id="Trazado_162044" data-name="Trazado 162044" d="M1218.015,352.838v5.2l-126.051,72.837v-5.183Z" fill="#d87923"/>
    </g>
    <g id="Grupo_154201" data-name="Grupo 154201">
      <path id="Trazado_162045" data-name="Trazado 162045" d="M1138.685,387.125l.015-28.795-41.774-24.149v28.735Z" fill="#dba763"/>
      <path id="Trazado_162046" data-name="Trazado 162046" d="M1138.685,387.125l.015-28.795,60.124-34.739v28.736Z" fill="#e8b679"/>
      <path id="Trazado_162047" data-name="Trazado 162047" d="M1198.824,323.591,1138.7,358.329l-41.774-24.149,60.142-34.726Z" fill="#ffe1c0"/>
      <g id="Grupo_154200" data-name="Grupo 154200">
        <path id="Trazado_162048" data-name="Trazado 162048" d="M1112.456,358.364l9.316,5.408V348.514l-9.316-5.412Z" fill="#4d4d4d"/>
        <path id="Trazado_162049" data-name="Trazado 162049" d="M1112.456,343.1l60.085-34.7,9.338,5.4-60.108,34.736Z" fill="#6d6d6d"/>
        <path id="Trazado_162050" data-name="Trazado 162050" d="M1135.57,382.357V379.67l-14.024-8.133v2.726Z" fill="#4d4d4d"/>
        <path id="Trazado_162051" data-name="Trazado 162051" d="M1135.57,377.551v-2.687l-14.024-8.133v2.726Z" fill="#4d4d4d"/>
        <path id="Trazado_162052" data-name="Trazado 162052" d="M1190.381,344.141v9.718l6.707-3.876v-9.716Z" fill="#4d4d4d"/>
        <path id="Trazado_162053" data-name="Trazado 162053" d="M1181.229,349.449v9.718l6.707-3.876v-9.717Z" fill="#4d4d4d"/>
        <path id="Trazado_162054" data-name="Trazado 162054" d="M1171.956,354.775v9.718l6.707-3.876V350.9Z" fill="#4d4d4d"/>
        <path id="Trazado_162055" data-name="Trazado 162055" d="M1140.514,359.525v13.964l13.784-7.965V351.543Z" fill="#fff"/>
        <path id="Trazado_162056" data-name="Trazado 162056" d="M1142.2,362.38v-2.273l10.845-6.253v2.236Z" fill="#4d4d4d"/>
      </g>
    </g>
    <g id="Grupo_154203" data-name="Grupo 154203">
      <path id="Trazado_162057" data-name="Trazado 162057" d="M1143.74,346.991l.009-16.857-26.973-15.593v16.819Z" fill="#dba763"/>
      <path id="Trazado_162058" data-name="Trazado 162058" d="M1143.74,346.991l.009-16.857,38.822-22.431v16.819Z" fill="#e8b679"/>
      <path id="Trazado_162059" data-name="Trazado 162059" d="M1182.572,307.733l-38.822,22.43-26.973-15.593,38.833-22.422Z" fill="#ffe1c0"/>
      <g id="Grupo_154202" data-name="Grupo 154202">
        <path id="Trazado_162060" data-name="Trazado 162060" d="M1141.729,343.912v-1.735l-9.055-5.252v1.761Z" fill="#4d4d4d"/>
        <path id="Trazado_162061" data-name="Trazado 162061" d="M1141.729,340.809v-1.735l-9.055-5.252v1.76Z" fill="#4d4d4d"/>
        <path id="Trazado_162062" data-name="Trazado 162062" d="M1175.867,314.514v7.827l5.4-3.122v-7.826Z" fill="#4d4d4d"/>
        <path id="Trazado_162063" data-name="Trazado 162063" d="M1168.495,318.789v7.827l5.4-3.122v-7.826Z" fill="#4d4d4d"/>
      </g>
      <path id="Trazado_162064" data-name="Trazado 162064" d="M1145.862,331.918v9.342l13.784-7.965v-9.359Z" fill="#fff"/>
      <path id="Trazado_162065" data-name="Trazado 162065" d="M1147.55,334.773V332.5l10.845-6.253v2.236Z" fill="#4d4d4d"/>
      <path id="Trazado_162066" data-name="Trazado 162066" d="M1123.593,327.347l9.316,5.407v-8.863l-9.316-5.412Z" fill="#4d4d4d"/>
      <path id="Trazado_162067" data-name="Trazado 162067" d="M1123.593,318.479l38.774-22.426,9.368,5.415-38.826,22.441Z" fill="#6d6d6d"/>
    </g>
    <g id="Grupo_154205" data-name="Grupo 154205">
      <path id="Trazado_162068" data-name="Trazado 162068" d="M1071.386,393.854l.007-13-18.571-10.7v13Z" fill="#dba763"/>
      <path id="Trazado_162069" data-name="Trazado 162069" d="M1071.386,393.854l.007-13,21.507-12.445v13Z" fill="#e8b679"/>
      <path id="Trazado_162070" data-name="Trazado 162070" d="M1092.9,368.412l-21.507,12.445-18.571-10.7,21.547-12.456Z" fill="#ffe1c0"/>
      <g id="Grupo_154204" data-name="Grupo 154204">
        <path id="Trazado_162071" data-name="Trazado 162071" d="M1069.832,391.476v-1.34l-6.994-4.056v1.36Z" fill="#4d4d4d"/>
        <path id="Trazado_162072" data-name="Trazado 162072" d="M1069.832,389.079v-1.34l-6.994-4.056v1.359Z" fill="#4d4d4d"/>
        <path id="Trazado_162073" data-name="Trazado 162073" d="M1086.678,374.812v6.046l4.172-2.411V372.4Z" fill="#4d4d4d"/>
      </g>
      <path id="Trazado_162074" data-name="Trazado 162074" d="M1082.7,376.414v7.154l8.672-5.011v-7.134Z" fill="#fff"/>
      <path id="Trazado_162075" data-name="Trazado 162075" d="M1084.017,378.139V376.8l6.393-3.686v1.318Z" fill="#4d4d4d"/>
      <path id="Trazado_162076" data-name="Trazado 162076" d="M1058.238,373.235l4.781,2.778v6.846l-4.781-2.775Z" fill="#4d4d4d"/>
      <path id="Trazado_162077" data-name="Trazado 162077" d="M1058.238,373.235l21.5-12.418,4.8,2.761-21.521,12.449Z" fill="#6d6d6d"/>
    </g>
    <g id="Grupo_154207" data-name="Grupo 154207">
      <path id="Trazado_162078" data-name="Trazado 162078" d="M1099.366,409.935l.007-13-18.571-10.7v13.005Z" fill="#dba763"/>
      <path id="Trazado_162079" data-name="Trazado 162079" d="M1099.366,409.935l.007-13,21.507-12.445v13Z" fill="#e8b679"/>
      <path id="Trazado_162080" data-name="Trazado 162080" d="M1120.881,384.493l-21.507,12.445-18.571-10.7,21.547-12.456Z" fill="#ffe1c0"/>
      <g id="Grupo_154206" data-name="Grupo 154206">
        <path id="Trazado_162081" data-name="Trazado 162081" d="M1097.813,407.557v-1.34l-6.994-4.056v1.359Z" fill="#4d4d4d"/>
        <path id="Trazado_162082" data-name="Trazado 162082" d="M1097.813,405.16v-1.34l-6.994-4.056v1.36Z" fill="#4d4d4d"/>
        <path id="Trazado_162083" data-name="Trazado 162083" d="M1114.659,390.892v6.045l4.172-2.411v-6.045Z" fill="#4d4d4d"/>
      </g>
      <path id="Trazado_162084" data-name="Trazado 162084" d="M1110.685,392.494v7.154l8.672-5.011V387.5Z" fill="#fff"/>
      <path id="Trazado_162085" data-name="Trazado 162085" d="M1112,394.22v-1.34l6.393-3.686v1.318Z" fill="#4d4d4d"/>
      <path id="Trazado_162086" data-name="Trazado 162086" d="M1086.219,389.316l4.781,2.778v6.846l-4.781-2.775Z" fill="#4d4d4d"/>
      <path id="Trazado_162087" data-name="Trazado 162087" d="M1086.219,389.316l21.5-12.419,4.8,2.762L1091,392.108Z" fill="#6d6d6d"/>
    </g>
    <g id="Grupo_154208" data-name="Grupo 154208">
      <path id="Trazado_162088" data-name="Trazado 162088" d="M1147.98,220.966l70.035,40.634-126.051,72.854-70.169-40.572Z" fill="#ed8e2f"/>
      <path id="Trazado_162089" data-name="Trazado 162089" d="M1091.964,339.636v-5.182l-70.169-40.572v5.171Z" fill="#c96a1c"/>
      <path id="Trazado_162090" data-name="Trazado 162090" d="M1218.015,261.6v5.2l-126.051,72.837v-5.182Z" fill="#d87923"/>
    </g>
    <g id="Grupo_154210" data-name="Grupo 154210">
      <path id="Trazado_162091" data-name="Trazado 162091" d="M1149.66,287.9l.015-52.281L1107.9,211.465v52.222Z" fill="#dba763"/>
      <path id="Trazado_162092" data-name="Trazado 162092" d="M1149.66,287.9l.015-52.281,41.773-24.149v52.222Z" fill="#e8b679"/>
      <path id="Trazado_162093" data-name="Trazado 162093" d="M1191.448,211.465l-41.773,24.149L1107.9,211.465l41.759-24.144Z" fill="#ffe1c0"/>
      <g id="Grupo_154209" data-name="Grupo 154209">
        <path id="Trazado_162094" data-name="Trazado 162094" d="M1123.431,235.649l9.316,5.407V225.8l-9.316-5.412Z" fill="#4d4d4d"/>
        <path id="Trazado_162095" data-name="Trazado 162095" d="M1123.431,220.387l41.715-24.117,9.335,5.394-41.734,24.154Z" fill="#6d6d6d"/>
        <path id="Trazado_162096" data-name="Trazado 162096" d="M1144.14,280.415v-2.687l-14.024-8.133v2.727Z" fill="#4d4d4d"/>
        <path id="Trazado_162097" data-name="Trazado 162097" d="M1144.14,275.609v-2.687l-14.024-8.133v2.726Z" fill="#4d4d4d"/>
        <path id="Trazado_162098" data-name="Trazado 162098" d="M1117.526,256.033v9.325l-6.707-3.884v-9.328Z" fill="#4d4d4d"/>
        <path id="Trazado_162099" data-name="Trazado 162099" d="M1182.258,255.057v9.718l6.707-3.876v-9.717Z" fill="#4d4d4d"/>
        <path id="Trazado_162100" data-name="Trazado 162100" d="M1173.105,260.364v9.718l6.707-3.876V256.49Z" fill="#4d4d4d"/>
        <path id="Trazado_162101" data-name="Trazado 162101" d="M1175.181,226.654v13.964l13.784-7.965V218.672Z" fill="#fff"/>
        <path id="Trazado_162102" data-name="Trazado 162102" d="M1176.869,229.51v-2.273l10.845-6.253v2.236Z" fill="#4d4d4d"/>
      </g>
    </g>
    <g id="Grupo_154212" data-name="Grupo 154212">
      <path id="Trazado_162103" data-name="Trazado 162103" d="M1092.4,321.142l.015-28.795L1050.646,268.2v28.736Z" fill="#dba763"/>
      <path id="Trazado_162104" data-name="Trazado 162104" d="M1092.4,321.142l.015-28.795,41.773-24.149v28.736Z" fill="#e8b679"/>
      <path id="Trazado_162105" data-name="Trazado 162105" d="M1134.193,268.2l-41.773,24.149L1050.646,268.2l41.759-24.144Z" fill="#ffe1c0"/>
      <g id="Grupo_154211" data-name="Grupo 154211">
        <path id="Trazado_162106" data-name="Trazado 162106" d="M1066.176,292.38l9.316,5.408V282.53l-9.316-5.412Z" fill="#4d4d4d"/>
        <path id="Trazado_162107" data-name="Trazado 162107" d="M1066.176,277.118,1107.891,253l9.335,5.394-41.735,24.154Z" fill="#6d6d6d"/>
        <path id="Trazado_162108" data-name="Trazado 162108" d="M1086.885,313.661v-2.687l-14.024-8.133v2.726Z" fill="#4d4d4d"/>
        <path id="Trazado_162109" data-name="Trazado 162109" d="M1086.885,308.855v-2.687l-14.024-8.133v2.727Z" fill="#4d4d4d"/>
        <path id="Trazado_162110" data-name="Trazado 162110" d="M1060.27,289.279V298.6l-6.707-3.883v-9.328Z" fill="#4d4d4d"/>
        <path id="Trazado_162111" data-name="Trazado 162111" d="M1125.776,289.868v9.718l6.707-3.876v-9.716Z" fill="#4d4d4d"/>
        <path id="Trazado_162112" data-name="Trazado 162112" d="M1116.623,295.176v9.718l6.707-3.876V291.3Z" fill="#4d4d4d"/>
        <path id="Trazado_162113" data-name="Trazado 162113" d="M1094.234,293.541v13.965l13.784-7.965V285.559Z" fill="#fff"/>
        <path id="Trazado_162114" data-name="Trazado 162114" d="M1095.922,296.4v-2.273l10.845-6.253v2.236Z" fill="#4d4d4d"/>
      </g>
    </g>
    <g id="Grupo_154214" data-name="Grupo 154214">
      <path id="Trazado_162115" data-name="Trazado 162115" d="M1091.963,284.307l.009-16.827L1065,251.886v16.838Z" fill="#dba763"/>
      <path id="Trazado_162116" data-name="Trazado 162116" d="M1091.963,284.307l.009-16.827,31.495-18.205V266.1Z" fill="#e8b679"/>
      <path id="Trazado_162117" data-name="Trazado 162117" d="M1123.467,249.274l-31.495,18.205L1065,251.886l31.476-18.2Z" fill="#ffe1c0"/>
      <g id="Grupo_154213" data-name="Grupo 154213">
        <path id="Trazado_162118" data-name="Trazado 162118" d="M1089.952,281.228v-1.735l-9.055-5.252V276Z" fill="#4d4d4d"/>
        <path id="Trazado_162119" data-name="Trazado 162119" d="M1089.952,278.125v-1.735l-9.055-5.252V272.9Z" fill="#4d4d4d"/>
        <path id="Trazado_162120" data-name="Trazado 162120" d="M1116.717,256.1v7.827l5.4-3.122v-7.826Z" fill="#4d4d4d"/>
      </g>
      <path id="Trazado_162121" data-name="Trazado 162121" d="M1094.085,269.234v9.342l13.784-7.965v-9.359Z" fill="#fff"/>
      <path id="Trazado_162122" data-name="Trazado 162122" d="M1095.773,272.089v-2.273l10.845-6.253V265.8Z" fill="#4d4d4d"/>
      <path id="Trazado_162123" data-name="Trazado 162123" d="M1071.816,264.663l9.316,5.407v-8.863l-9.316-5.412Z" fill="#4d4d4d"/>
      <path id="Trazado_162124" data-name="Trazado 162124" d="M1071.816,255.8l31.452-18.187,9.342,5.395-31.477,18.223Z" fill="#6d6d6d"/>
    </g>
    <g id="Grupo_154217" data-name="Grupo 154217">
      <g id="Grupo_154215" data-name="Grupo 154215">
        <path id="Trazado_162125" data-name="Trazado 162125" d="M1092.309,530.529l0-201.356,3.3-1.906V528.629Z" fill="#3a3a3a"/>
        <path id="Trazado_162126" data-name="Trazado 162126" d="M1092.309,530.529l-3.986-2.267V326.872l3.986,2.3Z" fill="#4d4d4d"/>
      </g>
      <g id="Grupo_154216" data-name="Grupo 154216">
        <path id="Trazado_162127" data-name="Trazado 162127" d="M1022.139,490.127l0-201.356,3.3-1.906V488.227Z" fill="#3a3a3a"/>
        <path id="Trazado_162128" data-name="Trazado 162128" d="M1022.139,490.127l-3.986-2.267V286.47l3.986,2.3Z" fill="#4d4d4d"/>
        <path id="Trazado_162129" data-name="Trazado 162129" d="M1095.6,327.267l-3.3,1.906-3.986-2.3,3.3-1.895Z" fill="#a3a3a3"/>
        <path id="Trazado_162130" data-name="Trazado 162130" d="M1025.435,286.865l-3.3,1.906-3.986-2.3,3.3-1.895Z" fill="#a3a3a3"/>
      </g>
      <path id="Trazado_162131" data-name="Trazado 162131" d="M1019.445,482.745l2.694,2.694,68.42-54.373-1.253-3.993Z" fill="#4d4d4d"/>
      <path id="Trazado_162132" data-name="Trazado 162132" d="M1090.014,521.505l-.634,3.849-68.834-133.809,1.591-2.336Z" fill="#4d4d4d"/>
      <path id="Trazado_162133" data-name="Trazado 162133" d="M1019.445,387.832l2.694,2.694,68.42-54.373-1.253-3.993Z" fill="#4d4d4d"/>
      <path id="Trazado_162134" data-name="Trazado 162134" d="M1090.014,426.593l-.634,3.848-68.834-133.808,1.591-2.336Z" fill="#4d4d4d"/>
    </g>
  </g>
</svg>
