<svg xmlns="http://www.w3.org/2000/svg" width="242.645" height="147.468" viewBox="0 0 242.645 147.468">
  <g id="Grupo_154576" data-name="Grupo 154576" transform="translate(-337.355 -2456.341)">
    <g id="Grupo_154251" data-name="Grupo 154251" transform="translate(-707.534 1710.898)">
      <path id="Trazado_162159" data-name="Trazado 162159" d="M1206.2,767.809l-34.086-20.289-8.593,5.144,32.805,18.311Z" transform="translate(34.644 0.607)" fill="#ff618b"/>
      <path id="Trazado_162160" data-name="Trazado 162160" d="M1166.35,747.422l-18.4,11.3v43.927l8.1-4.676c.9-6.254,4.716-12.758,9.283-15.395s8.379-.535,9.285,4.675l6.04-3.487V755.681A9.537,9.537,0,0,0,1166.35,747.422Z" transform="translate(30.098 0.201)" fill="#ff618b"/>
      <path id="Trazado_162161" data-name="Trazado 162161" d="M1197.878,796.425l-5.369-3.246-5.053-2.58s4.317-1.373,4.587-1.543S1199.268,791.37,1197.878,796.425Z" transform="translate(41.636 12.735)" fill="#262626"/>
      <g id="Grupo_154223" data-name="Grupo 154223" transform="translate(1219.012 803.334)">
        <path id="Trazado_162162" data-name="Trazado 162162" d="M1193.649,796.378c0,5.151-3.132,11.137-7,13.369s-7-.137-7-5.29,3.133-11.139,7-13.369S1193.649,791.226,1193.649,796.378Z" transform="translate(-1179.655 -790.249)" fill="#303030"/>
        <path id="Trazado_162163" data-name="Trazado 162163" d="M1186.775,812.942l-5.067-2.85,9.042-19.421,4.848,2.71Z" transform="translate(-1179.056 -790.126)" fill="#303030"/>
        <path id="Trazado_162164" data-name="Trazado 162164" d="M1197.719,798.645c0,5.153-3.133,11.137-7,13.369s-7-.137-7-5.29,3.133-11.137,7-13.369S1197.719,793.493,1197.719,798.645Z" transform="translate(-1178.466 -789.587)" fill="#494949"/>
        <path id="Trazado_162165" data-name="Trazado 162165" d="M1194.7,799.385c0,3.34-2.03,7.221-4.535,8.667s-4.536-.089-4.536-3.429,2.031-7.22,4.536-8.667S1194.7,796.045,1194.7,799.385Z" transform="translate(-1177.91 -788.741)" fill="#969696"/>
        <path id="Trazado_162166" data-name="Trazado 162166" d="M1193.131,799.7a7.8,7.8,0,0,1-3.255,6.219c-1.8,1.037-3.255-.065-3.255-2.461a7.793,7.793,0,0,1,3.255-6.219C1191.674,796.206,1193.131,797.308,1193.131,799.7Z" transform="translate(-1177.62 -788.32)" fill="#fff"/>
        <path id="Trazado_162167" data-name="Trazado 162167" d="M1191.069,800.123a3.769,3.769,0,0,1-1.572,3.007c-.87.5-1.574-.031-1.574-1.19a3.768,3.768,0,0,1,1.574-3.006C1190.365,798.431,1191.069,798.964,1191.069,800.123Z" transform="translate(-1177.241 -787.768)" fill="#383838"/>
        <path id="Trazado_162168" data-name="Trazado 162168" d="M1189.51,797.926a.72.72,0,0,1-.3.576c-.167.1-.3-.005-.3-.227a.721.721,0,0,1,.3-.576C1189.376,797.6,1189.51,797.7,1189.51,797.926Z" transform="translate(-1176.953 -788.084)" fill="#383838"/>
        <path id="Trazado_162169" data-name="Trazado 162169" d="M1191.089,797.926a.72.72,0,0,1-.3.576c-.167.1-.3-.005-.3-.227a.722.722,0,0,1,.3-.576C1190.955,797.6,1191.089,797.7,1191.089,797.926Z" transform="translate(-1176.492 -788.084)" fill="#383838"/>
        <path id="Trazado_162170" data-name="Trazado 162170" d="M1188.059,799.673a.726.726,0,0,1-.3.578c-.167.1-.3-.006-.3-.229a.721.721,0,0,1,.3-.576C1187.924,799.348,1188.059,799.45,1188.059,799.673Z" transform="translate(-1177.377 -787.574)" fill="#383838"/>
        <path id="Trazado_162171" data-name="Trazado 162171" d="M1191.089,801.2a.72.72,0,0,1-.3.576c-.167.1-.3-.005-.3-.227a.722.722,0,0,1,.3-.576C1190.955,800.88,1191.089,800.982,1191.089,801.2Z" transform="translate(-1176.492 -787.127)" fill="#383838"/>
        <path id="Trazado_162172" data-name="Trazado 162172" d="M1188.059,802.953a.723.723,0,0,1-.3.576c-.167.1-.3-.006-.3-.229a.723.723,0,0,1,.3-.576C1187.924,802.629,1188.059,802.731,1188.059,802.953Z" transform="translate(-1177.377 -786.616)" fill="#383838"/>
        <path id="Trazado_162173" data-name="Trazado 162173" d="M1191.466,799.438a.721.721,0,0,1-.3.576c-.167.1-.3-.005-.3-.227a.721.721,0,0,1,.3-.576C1191.332,799.113,1191.466,799.215,1191.466,799.438Z" transform="translate(-1176.382 -787.643)" fill="#383838"/>
        <path id="Trazado_162174" data-name="Trazado 162174" d="M1187.593,801.67a.722.722,0,0,1-.3.576c-.167.1-.3-.005-.3-.227a.72.72,0,0,1,.3-.576C1187.457,801.345,1187.593,801.448,1187.593,801.67Z" transform="translate(-1177.513 -786.991)" fill="#383838"/>
        <path id="Trazado_162175" data-name="Trazado 162175" d="M1189.51,802.953a.722.722,0,0,1-.3.576c-.167.1-.3-.006-.3-.229a.723.723,0,0,1,.3-.576C1189.376,802.629,1189.51,802.731,1189.51,802.953Z" transform="translate(-1176.953 -786.616)" fill="#383838"/>
      </g>
      <g id="Grupo_154224" data-name="Grupo 154224" transform="translate(1184.399 810.981)">
        <path id="Trazado_162176" data-name="Trazado 162176" d="M1152.866,810.434l24.946-14.266,14,8.082-25.061,14.357Z" transform="translate(-1152.866 -796.167)" fill="#6b6b6b"/>
        <path id="Trazado_162177" data-name="Trazado 162177" d="M1188.7,802.423l-25.183,14.4v6.831l25.183-14.4Z" transform="translate(-1149.755 -794.34)" fill="#5b5b5b"/>
        <path id="Trazado_162178" data-name="Trazado 162178" d="M1184.861,806.99l-13.7,7.864v.774l13.7-7.86Z" transform="translate(-1147.522 -793.007)" fill="#8c8c8c"/>
        <path id="Trazado_162179" data-name="Trazado 162179" d="M1184.861,805.681l-13.7,7.863v.774l13.7-7.86Z" transform="translate(-1147.522 -793.389)" fill="#8c8c8c"/>
      </g>
      <path id="Trazado_162180" data-name="Trazado 162180" d="M1183.828,779.655l18.251-10.952-36.564-21.114L1147.5,758.676Z" transform="translate(29.966 0.627)" fill="#f2466b"/>
      <path id="Trazado_162181" data-name="Trazado 162181" d="M1152.67,759.747s10.834-6.613,14.728-8.874a50.252,50.252,0,0,1,4.636-2.322s-.411-3.286-5.34-2.2c-5.411,1.19-14.024,4.871-14.024,4.871Z" transform="translate(31.477 0.201)" fill="#f2466b"/>
      <path id="Trazado_162182" data-name="Trazado 162182" d="M1199.3,763.482l-28.879-16.888L1154,752.082l28.215,19.163Z" transform="translate(31.866 0.336)" fill="#f2466b"/>
      <path id="Trazado_162183" data-name="Trazado 162183" d="M1179.149,818.27l-15.633-8.312V765.25l15.633,9.027Z" transform="translate(34.644 5.785)" fill="#fc6181"/>
      <path id="Trazado_162184" data-name="Trazado 162184" d="M1182.607,775.938l-29.936-16.626V750.07l29.936,17.342Z" transform="translate(31.477 1.351)" fill="#fc6181"/>
      <g id="Grupo_154236" data-name="Grupo 154236" transform="translate(1064.887 745.442)">
        <path id="Trazado_162185" data-name="Trazado 162185" d="M1115.719,833.588l7.7,4.446v7.888l-7.7-4.446Z" transform="translate(-1044.201 -719.7)" fill="#303030"/>
        <g id="Grupo_154225" data-name="Grupo 154225" transform="translate(122.924 75.974)">
          <path id="Trazado_162186" data-name="Trazado 162186" d="M1169.5,810.373c0,5.153-3.133,11.137-7,13.369s-7-.137-7-5.29,3.132-11.138,7-13.369S1169.5,805.221,1169.5,810.373Z" transform="translate(-1155.506 -804.244)" fill="#303030"/>
          <path id="Trazado_162187" data-name="Trazado 162187" d="M1162.626,826.937l-5.067-2.85,9.042-19.421,4.848,2.71Z" transform="translate(-1154.907 -804.121)" fill="#303030"/>
          <path id="Trazado_162188" data-name="Trazado 162188" d="M1173.569,812.641c0,5.153-3.132,11.139-7,13.369s-7-.137-7-5.29,3.133-11.137,7-13.369S1173.569,807.488,1173.569,812.641Z" transform="translate(-1154.318 -803.582)" fill="#494949"/>
          <path id="Trazado_162189" data-name="Trazado 162189" d="M1170.553,813.38c0,3.341-2.031,7.221-4.536,8.667s-4.536-.088-4.536-3.429,2.031-7.22,4.536-8.667S1170.553,810.04,1170.553,813.38Z" transform="translate(-1153.761 -802.736)" fill="#969696"/>
          <path id="Trazado_162190" data-name="Trazado 162190" d="M1168.981,813.7a7.794,7.794,0,0,1-3.255,6.219c-1.8,1.038-3.254-.063-3.254-2.46a7.8,7.8,0,0,1,3.254-6.219C1167.524,810.2,1168.981,811.3,1168.981,813.7Z" transform="translate(-1153.472 -802.315)" fill="#fff"/>
          <path id="Trazado_162191" data-name="Trazado 162191" d="M1166.92,814.117a3.77,3.77,0,0,1-1.574,3.007c-.87.5-1.574-.031-1.574-1.19a3.766,3.766,0,0,1,1.574-3.005C1166.215,812.426,1166.92,812.96,1166.92,814.117Z" transform="translate(-1153.092 -801.763)" fill="#383838"/>
          <path id="Trazado_162192" data-name="Trazado 162192" d="M1165.362,811.921a.722.722,0,0,1-.3.576c-.167.1-.3-.005-.3-.227a.722.722,0,0,1,.3-.576C1165.226,811.6,1165.362,811.7,1165.362,811.921Z" transform="translate(-1152.804 -802.079)" fill="#383838"/>
          <path id="Trazado_162193" data-name="Trazado 162193" d="M1166.94,811.921a.722.722,0,0,1-.3.576c-.167.1-.3-.005-.3-.227a.721.721,0,0,1,.3-.576C1166.8,811.6,1166.94,811.7,1166.94,811.921Z" transform="translate(-1152.343 -802.079)" fill="#383838"/>
          <path id="Trazado_162194" data-name="Trazado 162194" d="M1163.909,813.669a.723.723,0,0,1-.3.576c-.167.1-.3-.006-.3-.229a.723.723,0,0,1,.3-.576C1163.775,813.345,1163.909,813.447,1163.909,813.669Z" transform="translate(-1153.228 -801.569)" fill="#383838"/>
          <path id="Trazado_162195" data-name="Trazado 162195" d="M1166.94,815.2a.723.723,0,0,1-.3.576c-.167.1-.3-.006-.3-.229a.723.723,0,0,1,.3-.576C1166.8,814.876,1166.94,814.979,1166.94,815.2Z" transform="translate(-1152.343 -801.121)" fill="#383838"/>
          <path id="Trazado_162196" data-name="Trazado 162196" d="M1163.909,816.948a.721.721,0,0,1-.3.576c-.167.1-.3-.005-.3-.227a.726.726,0,0,1,.3-.578C1163.775,816.624,1163.909,816.726,1163.909,816.948Z" transform="translate(-1153.228 -800.611)" fill="#383838"/>
          <path id="Trazado_162197" data-name="Trazado 162197" d="M1167.318,813.433a.722.722,0,0,1-.3.576c-.167.1-.3-.005-.3-.227a.72.72,0,0,1,.3-.576C1167.182,813.108,1167.318,813.21,1167.318,813.433Z" transform="translate(-1152.233 -801.638)" fill="#383838"/>
          <path id="Trazado_162198" data-name="Trazado 162198" d="M1163.442,815.665a.725.725,0,0,1-.3.578c-.167.1-.3-.006-.3-.229a.721.721,0,0,1,.3-.576C1163.308,815.34,1163.442,815.442,1163.442,815.665Z" transform="translate(-1153.365 -800.986)" fill="#383838"/>
          <path id="Trazado_162199" data-name="Trazado 162199" d="M1165.362,816.948a.721.721,0,0,1-.3.576c-.167.1-.3-.005-.3-.227a.727.727,0,0,1,.3-.578C1165.226,816.624,1165.362,816.726,1165.362,816.948Z" transform="translate(-1152.804 -800.611)" fill="#383838"/>
        </g>
        <g id="Grupo_154226" data-name="Grupo 154226" transform="translate(106.5 85.592)">
          <path id="Trazado_162200" data-name="Trazado 162200" d="M1156.788,817.817c0,5.151-3.132,11.137-7,13.369s-7-.137-7-5.29,3.133-11.139,7-13.369S1156.788,812.665,1156.788,817.817Z" transform="translate(-1142.794 -811.688)" fill="#303030"/>
          <path id="Trazado_162201" data-name="Trazado 162201" d="M1149.914,834.381l-5.067-2.85,9.042-19.421,4.848,2.71Z" transform="translate(-1142.194 -811.565)" fill="#303030"/>
          <path id="Trazado_162202" data-name="Trazado 162202" d="M1160.858,820.084c0,5.153-3.133,11.137-7,13.369s-7-.137-7-5.29,3.133-11.137,7-13.369S1160.858,814.932,1160.858,820.084Z" transform="translate(-1141.605 -811.026)" fill="#494949"/>
          <path id="Trazado_162203" data-name="Trazado 162203" d="M1157.841,820.824c0,3.34-2.031,7.221-4.536,8.667s-4.535-.089-4.535-3.429,2.03-7.221,4.535-8.667S1157.841,817.484,1157.841,820.824Z" transform="translate(-1141.049 -810.18)" fill="#969696"/>
          <path id="Trazado_162204" data-name="Trazado 162204" d="M1156.269,821.144a7.791,7.791,0,0,1-3.255,6.219c-1.8,1.037-3.255-.065-3.255-2.461a7.8,7.8,0,0,1,3.255-6.219C1154.813,817.645,1156.269,818.747,1156.269,821.144Z" transform="translate(-1140.76 -809.759)" fill="#fff"/>
          <path id="Trazado_162205" data-name="Trazado 162205" d="M1154.208,821.562a3.768,3.768,0,0,1-1.574,3.007c-.868.5-1.573-.031-1.573-1.19a3.77,3.77,0,0,1,1.573-3.007C1153.5,819.87,1154.208,820.4,1154.208,821.562Z" transform="translate(-1140.379 -809.207)" fill="#383838"/>
          <path id="Trazado_162206" data-name="Trazado 162206" d="M1152.649,819.365a.722.722,0,0,1-.3.576c-.165.1-.3-.006-.3-.227a.729.729,0,0,1,.3-.578C1152.514,819.041,1152.649,819.143,1152.649,819.365Z" transform="translate(-1140.092 -809.523)" fill="#383838"/>
          <path id="Trazado_162207" data-name="Trazado 162207" d="M1154.228,819.365a.72.72,0,0,1-.3.576c-.167.1-.3-.006-.3-.227a.726.726,0,0,1,.3-.578C1154.094,819.041,1154.228,819.143,1154.228,819.365Z" transform="translate(-1139.631 -809.523)" fill="#383838"/>
          <path id="Trazado_162208" data-name="Trazado 162208" d="M1151.2,821.112a.721.721,0,0,1-.3.576c-.167.1-.3-.005-.3-.227a.721.721,0,0,1,.3-.576C1151.063,820.787,1151.2,820.889,1151.2,821.112Z" transform="translate(-1140.516 -809.013)" fill="#383838"/>
          <path id="Trazado_162209" data-name="Trazado 162209" d="M1154.228,822.644a.721.721,0,0,1-.3.576c-.167.1-.3-.005-.3-.228a.721.721,0,0,1,.3-.576C1154.094,822.319,1154.228,822.421,1154.228,822.644Z" transform="translate(-1139.631 -808.566)" fill="#383838"/>
          <path id="Trazado_162210" data-name="Trazado 162210" d="M1151.2,824.392a.725.725,0,0,1-.3.576c-.167.1-.3-.006-.3-.229a.721.721,0,0,1,.3-.576C1151.063,824.067,1151.2,824.169,1151.2,824.392Z" transform="translate(-1140.516 -808.055)" fill="#383838"/>
          <path id="Trazado_162211" data-name="Trazado 162211" d="M1154.605,820.877a.721.721,0,0,1-.3.576c-.167.1-.3-.006-.3-.227a.722.722,0,0,1,.3-.576C1154.471,820.552,1154.605,820.655,1154.605,820.877Z" transform="translate(-1139.521 -809.082)" fill="#383838"/>
          <path id="Trazado_162212" data-name="Trazado 162212" d="M1150.731,823.109a.721.721,0,0,1-.3.576c-.167.1-.3-.005-.3-.227a.725.725,0,0,1,.3-.578C1150.6,822.784,1150.731,822.887,1150.731,823.109Z" transform="translate(-1140.652 -808.43)" fill="#383838"/>
          <path id="Trazado_162213" data-name="Trazado 162213" d="M1152.649,824.392a.726.726,0,0,1-.3.576c-.165.1-.3-.006-.3-.229a.724.724,0,0,1,.3-.576C1152.514,824.067,1152.649,824.169,1152.649,824.392Z" transform="translate(-1140.092 -808.055)" fill="#383838"/>
        </g>
        <g id="Grupo_154227" data-name="Grupo 154227" transform="translate(65.219 93.011)">
          <path id="Trazado_162214" data-name="Trazado 162214" d="M1110.844,835.771l30.944-18.342,14,8.082-30.943,18.342Z" transform="translate(-1110.844 -817.43)" fill="#6b6b6b"/>
          <path id="Trazado_162215" data-name="Trazado 162215" d="M1121.679,841.979v6.834l30.943-18.29v-6.839Z" transform="translate(-1107.68 -815.603)" fill="#5b5b5b"/>
          <path id="Trazado_162216" data-name="Trazado 162216" d="M1121.679,845.528v.775l29.659-17.387v-.777Z" transform="translate(-1107.68 -814.302)" fill="#8c8c8c"/>
          <path id="Trazado_162217" data-name="Trazado 162217" d="M1121.679,844.219v.775l29.659-17.387v-.778Z" transform="translate(-1107.68 -814.685)" fill="#8c8c8c"/>
        </g>
        <g id="Grupo_154228" data-name="Grupo 154228" transform="translate(58.766 112.89)">
          <path id="Trazado_162218" data-name="Trazado 162218" d="M1119.844,838.945c0,5.153-3.132,11.137-7,13.369s-7-.137-7-5.29,3.133-11.137,7-13.369S1119.844,833.793,1119.844,838.945Z" transform="translate(-1105.85 -832.816)" fill="#303030"/>
          <path id="Trazado_162219" data-name="Trazado 162219" d="M1112.97,855.509l-5.067-2.85,9.042-19.421,4.848,2.71Z" transform="translate(-1105.25 -832.693)" fill="#303030"/>
          <path id="Trazado_162220" data-name="Trazado 162220" d="M1123.914,841.213c0,5.153-3.133,11.139-7,13.369s-7-.137-7-5.288,3.133-11.139,7-13.37S1123.914,836.06,1123.914,841.213Z" transform="translate(-1104.661 -832.154)" fill="#494949"/>
          <path id="Trazado_162221" data-name="Trazado 162221" d="M1120.9,841.952c0,3.341-2.031,7.221-4.536,8.667s-4.535-.088-4.535-3.429,2.031-7.22,4.535-8.667S1120.9,838.612,1120.9,841.952Z" transform="translate(-1104.105 -831.308)" fill="#969696"/>
          <ellipse id="Elipse_5000" data-name="Elipse 5000" cx="4.997" cy="2.827" rx="4.997" ry="2.827" transform="translate(7.698 16.754) rotate(-66.949)" fill="#fff"/>
          <path id="Trazado_162222" data-name="Trazado 162222" d="M1117.264,842.689a3.766,3.766,0,0,1-1.574,3.007c-.868.5-1.572-.031-1.572-1.189a3.768,3.768,0,0,1,1.572-3.006C1116.56,841,1117.264,841.532,1117.264,842.689Z" transform="translate(-1103.435 -830.335)" fill="#383838"/>
          <path id="Trazado_162223" data-name="Trazado 162223" d="M1115.705,840.493a.722.722,0,0,1-.3.576c-.165.1-.3-.005-.3-.227a.724.724,0,0,1,.3-.576C1115.57,840.168,1115.705,840.27,1115.705,840.493Z" transform="translate(-1103.148 -830.651)" fill="#383838"/>
          <path id="Trazado_162224" data-name="Trazado 162224" d="M1117.284,840.493a.721.721,0,0,1-.3.576c-.167.1-.3-.005-.3-.227a.721.721,0,0,1,.3-.576C1117.15,840.168,1117.284,840.27,1117.284,840.493Z" transform="translate(-1102.687 -830.651)" fill="#383838"/>
          <path id="Trazado_162225" data-name="Trazado 162225" d="M1114.254,842.241a.724.724,0,0,1-.3.576c-.167.1-.3-.006-.3-.229a.722.722,0,0,1,.3-.576C1114.119,841.917,1114.254,842.018,1114.254,842.241Z" transform="translate(-1103.572 -830.141)" fill="#383838"/>
          <path id="Trazado_162226" data-name="Trazado 162226" d="M1117.284,843.773a.723.723,0,0,1-.3.576c-.167.1-.3-.006-.3-.229a.721.721,0,0,1,.3-.576C1117.15,843.449,1117.284,843.549,1117.284,843.773Z" transform="translate(-1102.687 -829.694)" fill="#383838"/>
          <path id="Trazado_162227" data-name="Trazado 162227" d="M1114.254,845.52a.722.722,0,0,1-.3.576c-.167.1-.3-.006-.3-.227a.725.725,0,0,1,.3-.578C1114.119,845.2,1114.254,845.3,1114.254,845.52Z" transform="translate(-1103.572 -829.183)" fill="#383838"/>
          <path id="Trazado_162228" data-name="Trazado 162228" d="M1117.661,842a.72.72,0,0,1-.3.576c-.167.1-.3-.005-.3-.227a.722.722,0,0,1,.3-.576C1117.527,841.68,1117.661,841.782,1117.661,842Z" transform="translate(-1102.577 -830.21)" fill="#383838"/>
          <path id="Trazado_162229" data-name="Trazado 162229" d="M1113.787,844.237a.721.721,0,0,1-.3.576c-.167.1-.3-.005-.3-.227a.72.72,0,0,1,.3-.576C1113.652,843.912,1113.787,844.014,1113.787,844.237Z" transform="translate(-1103.708 -829.558)" fill="#383838"/>
          <path id="Trazado_162230" data-name="Trazado 162230" d="M1115.705,845.52a.722.722,0,0,1-.3.576c-.165.1-.3-.006-.3-.227a.729.729,0,0,1,.3-.578C1115.57,845.2,1115.705,845.3,1115.705,845.52Z" transform="translate(-1103.148 -829.183)" fill="#383838"/>
        </g>
        <g id="Grupo_154229" data-name="Grupo 154229" transform="translate(44.201 121.316)">
          <path id="Trazado_162231" data-name="Trazado 162231" d="M1108.57,845.466c0,5.153-3.132,11.139-7,13.37s-7-.138-7-5.29,3.132-11.139,7-13.37S1108.57,840.315,1108.57,845.466Z" transform="translate(-1094.577 -839.338)" fill="#303030"/>
          <path id="Trazado_162232" data-name="Trazado 162232" d="M1101.7,862.03l-5.067-2.85,9.042-19.421,4.848,2.71Z" transform="translate(-1093.978 -839.214)" fill="#303030"/>
          <path id="Trazado_162233" data-name="Trazado 162233" d="M1112.64,847.734c0,5.151-3.133,11.137-7,13.369s-7-.137-7-5.29,3.133-11.137,7-13.369S1112.64,842.582,1112.64,847.734Z" transform="translate(-1093.389 -838.675)" fill="#494949"/>
          <path id="Trazado_162234" data-name="Trazado 162234" d="M1109.622,848.474c0,3.34-2.03,7.22-4.536,8.667s-4.535-.089-4.535-3.429,2.031-7.221,4.535-8.667S1109.622,845.134,1109.622,848.474Z" transform="translate(-1092.832 -837.83)" fill="#969696"/>
          <path id="Trazado_162235" data-name="Trazado 162235" d="M1108.053,848.794a7.8,7.8,0,0,1-3.256,6.219c-1.8,1.037-3.255-.065-3.255-2.461a7.8,7.8,0,0,1,3.255-6.219C1106.6,845.295,1108.053,846.4,1108.053,848.794Z" transform="translate(-1092.543 -837.409)" fill="#fff"/>
          <path id="Trazado_162236" data-name="Trazado 162236" d="M1105.99,849.212a3.768,3.768,0,0,1-1.574,3.007c-.868.5-1.573-.031-1.573-1.19a3.769,3.769,0,0,1,1.573-3.007C1105.286,847.52,1105.99,848.053,1105.99,849.212Z" transform="translate(-1092.163 -836.857)" fill="#383838"/>
          <path id="Trazado_162237" data-name="Trazado 162237" d="M1104.432,847.015a.72.72,0,0,1-.3.576c-.166.1-.3-.006-.3-.229a.726.726,0,0,1,.3-.576C1104.3,846.69,1104.432,846.793,1104.432,847.015Z" transform="translate(-1091.875 -837.173)" fill="#383838"/>
          <path id="Trazado_162238" data-name="Trazado 162238" d="M1106.01,847.015a.723.723,0,0,1-.3.576c-.167.1-.3-.006-.3-.229a.723.723,0,0,1,.3-.576C1105.876,846.69,1106.01,846.793,1106.01,847.015Z" transform="translate(-1091.414 -837.173)" fill="#383838"/>
          <path id="Trazado_162239" data-name="Trazado 162239" d="M1102.98,848.762a.722.722,0,0,1-.3.576c-.167.1-.3-.005-.3-.227a.721.721,0,0,1,.3-.576C1102.845,848.437,1102.98,848.539,1102.98,848.762Z" transform="translate(-1092.299 -836.662)" fill="#383838"/>
          <path id="Trazado_162240" data-name="Trazado 162240" d="M1106.01,850.294a.721.721,0,0,1-.3.576c-.167.1-.3-.005-.3-.227a.721.721,0,0,1,.3-.576C1105.876,849.969,1106.01,850.071,1106.01,850.294Z" transform="translate(-1091.414 -836.215)" fill="#383838"/>
          <path id="Trazado_162241" data-name="Trazado 162241" d="M1102.98,852.041a.726.726,0,0,1-.3.578c-.167.1-.3-.006-.3-.229a.721.721,0,0,1,.3-.576C1102.845,851.716,1102.98,851.818,1102.98,852.041Z" transform="translate(-1092.299 -835.705)" fill="#383838"/>
          <path id="Trazado_162242" data-name="Trazado 162242" d="M1106.387,848.527a.722.722,0,0,1-.3.576c-.167.1-.3-.006-.3-.229a.724.724,0,0,1,.3-.576C1106.253,848.2,1106.387,848.3,1106.387,848.527Z" transform="translate(-1091.304 -836.731)" fill="#383838"/>
          <path id="Trazado_162243" data-name="Trazado 162243" d="M1102.513,850.759a.721.721,0,0,1-.3.576c-.167.1-.3-.006-.3-.229a.725.725,0,0,1,.3-.576C1102.378,850.435,1102.513,850.537,1102.513,850.759Z" transform="translate(-1092.436 -836.08)" fill="#383838"/>
          <path id="Trazado_162244" data-name="Trazado 162244" d="M1104.432,852.041a.723.723,0,0,1-.3.578c-.166.1-.3-.006-.3-.229a.724.724,0,0,1,.3-.576C1104.3,851.716,1104.432,851.818,1104.432,852.041Z" transform="translate(-1091.875 -835.705)" fill="#383838"/>
        </g>
        <path id="Trazado_162245" data-name="Trazado 162245" d="M1097.246,853.59c-2.042-1.052-5.035-2.606-5.035-2.606l5.986-2.722Z" transform="translate(-1051.067 -715.415)" fill="#494949"/>
        <path id="Trazado_162246" data-name="Trazado 162246" d="M1105.779,839.76l-.55.326a18.571,18.571,0,0,0-9.12,15.988h0l1.68-1.021.12-.7a17.4,17.4,0,0,1,6.163-10.555l.74-.6Z" transform="translate(-1049.929 -717.898)" fill="#969696"/>
        <path id="Trazado_162247" data-name="Trazado 162247" d="M1097.086,827.038l104.661-60.392-36.719-21.2-104.661,60.392Z" transform="translate(-1060.367 -745.443)" fill="#ededed"/>
        <path id="Trazado_162248" data-name="Trazado 162248" d="M1065.089,806.4l100.918-58.163-2.079-1.073L1063.011,805.33Z" transform="translate(-1059.594 -744.939)" fill="#ccc"/>
        <path id="Trazado_162249" data-name="Trazado 162249" d="M1089.407,820.369l100.918-58.163-2.078-1.073L1087.328,819.3Z" transform="translate(-1052.493 -740.86)" fill="#ccc"/>
        <path id="Trazado_162250" data-name="Trazado 162250" d="M1061.484,836.1V842.1l36.719,21.188v-5.978Z" transform="translate(-1060.04 -718.966)" fill="#303030"/>
        <path id="Trazado_162251" data-name="Trazado 162251" d="M1091.609,851.728l-1.757,1.015v5.978l1.757-1.014Z" transform="translate(-1051.756 -714.403)" fill="#494949"/>
        <g id="Grupo_154230" data-name="Grupo 154230" transform="translate(34.034 137.326)">
          <path id="Trazado_162252" data-name="Trazado 162252" d="M1089.094,856.571l-2.387-1.378V852.01l2.387,1.378Z" transform="translate(-1086.708 -851.646)" fill="#fc6181"/>
          <path id="Trazado_162253" data-name="Trazado 162253" d="M1089.2,852.79l-.642.371v3.182l.642-.371Z" transform="translate(-1086.168 -851.418)" fill="#d1406b"/>
          <path id="Trazado_162254" data-name="Trazado 162254" d="M1089.737,853.1l-2.387-1.372-.642.371,2.387,1.372Z" transform="translate(-1086.708 -851.728)" fill="#f95377"/>
        </g>
        <g id="Grupo_154231" data-name="Grupo 154231" transform="translate(2.429 118.464)">
          <path id="Trazado_162255" data-name="Trazado 162255" d="M1064.633,841.972l-2.387-1.378v-3.182l2.387,1.378Z" transform="translate(-1062.246 -837.047)" fill="#fc6181"/>
          <path id="Trazado_162256" data-name="Trazado 162256" d="M1064.736,838.191l-.642.371v3.182l.642-.371Z" transform="translate(-1061.707 -836.819)" fill="#d1406b"/>
          <path id="Trazado_162257" data-name="Trazado 162257" d="M1065.276,838.5l-2.387-1.372-.642.371,2.387,1.372Z" transform="translate(-1062.246 -837.13)" fill="#f95377"/>
        </g>
        <g id="Grupo_154233" data-name="Grupo 154233" transform="translate(0 21.093)">
          <path id="Trazado_162258" data-name="Trazado 162258" d="M1060.367,792.184V849.9l36.719,21.188V813.388Z" transform="translate(-1060.367 -752.885)" fill="#ccc"/>
          <g id="Grupo_154232" data-name="Grupo 154232" transform="translate(1.308 41.619)">
            <path id="Trazado_162259" data-name="Trazado 162259" d="M1095.483,813.791l-34.1-19.812v54.472l.053.031,34.051-19.648Z" transform="translate(-1061.379 -793.979)" fill="#494949"/>
            <path id="Trazado_162260" data-name="Trazado 162260" d="M1095.471,820.955,1061.419,840.6l34.052,19.767Z" transform="translate(-1061.367 -786.101)" fill="#5b5b5b"/>
          </g>
          <path id="Trazado_162261" data-name="Trazado 162261" d="M1142.406,789.1l-28.369,16.369-4.265,5.586,32.634-18.825Z" transform="translate(-1045.938 -753.785)" fill="#fff"/>
          <path id="Trazado_162262" data-name="Trazado 162262" d="M1140.856,784.831l-21.513,12.642-4.265,5.586,25.778-15.1Z" transform="translate(-1044.388 -755.032)" fill="#fff"/>
          <path id="Trazado_162263" data-name="Trazado 162263" d="M1088.786,822.159v57.817L1193.447,819.6V761.768Z" transform="translate(-1052.067 -761.768)" fill="#a5a5a5"/>
          <path id="Trazado_162264" data-name="Trazado 162264" d="M1093.754,808.475l-1.357.783v50.513l1.357-.783Z" transform="translate(-1051.012 -748.127)" fill="#8e8e8e"/>
          <path id="Trazado_162265" data-name="Trazado 162265" d="M1098.459,805.763l-1.357.783V857.06l1.357-.783Z" transform="translate(-1049.638 -748.919)" fill="#8e8e8e"/>
          <path id="Trazado_162266" data-name="Trazado 162266" d="M1114.559,796.441l-1.357.783v50.513l1.357-.783Z" transform="translate(-1044.937 -751.641)" fill="#8e8e8e"/>
          <path id="Trazado_162267" data-name="Trazado 162267" d="M1119.263,793.729l-1.357.783v50.513l1.357-.783Z" transform="translate(-1043.563 -752.434)" fill="#8e8e8e"/>
          <path id="Trazado_162268" data-name="Trazado 162268" d="M1124.28,790.912l-1.357.783v50.513l1.357-.783Z" transform="translate(-1042.098 -753.256)" fill="#8e8e8e"/>
          <path id="Trazado_162269" data-name="Trazado 162269" d="M1128.984,788.2l-1.357.783V839.5l1.357-.783Z" transform="translate(-1040.724 -754.048)" fill="#8e8e8e"/>
          <path id="Trazado_162270" data-name="Trazado 162270" d="M1134.091,785.055l-1.357.783v50.513l1.357-.783Z" transform="translate(-1039.232 -754.967)" fill="#8e8e8e"/>
          <path id="Trazado_162271" data-name="Trazado 162271" d="M1138.8,782.343l-1.357.783v50.513l1.357-.783Z" transform="translate(-1037.858 -755.759)" fill="#8e8e8e"/>
          <path id="Trazado_162272" data-name="Trazado 162272" d="M1158.056,771.147l-1.357.783v50.513l1.357-.783Z" transform="translate(-1032.234 -759.028)" fill="#8e8e8e"/>
          <path id="Trazado_162273" data-name="Trazado 162273" d="M1162.76,768.435l-1.357.783v50.513l1.357-.783Z" transform="translate(-1030.86 -759.821)" fill="#8e8e8e"/>
        </g>
        <g id="Grupo_154234" data-name="Grupo 154234" transform="translate(135.101 74.712)">
          <path id="Trazado_162274" data-name="Trazado 162274" d="M1165.428,808.11l2.387-1.378V803.55l-2.387,1.378Z" transform="translate(-1164.786 -803.185)" fill="#fff"/>
          <path id="Trazado_162275" data-name="Trazado 162275" d="M1164.931,804.329l.642.371v3.182l-.642-.371Z" transform="translate(-1164.931 -802.957)" fill="#bbb"/>
          <path id="Trazado_162276" data-name="Trazado 162276" d="M1164.931,804.64l2.387-1.372.642.371-2.387,1.372Z" transform="translate(-1164.931 -803.268)" fill="#cecece"/>
        </g>
        <g id="Grupo_154235" data-name="Grupo 154235" transform="translate(56.892 120.055)">
          <path id="Trazado_162277" data-name="Trazado 162277" d="M1104.9,843.2l2.387-1.378v-3.182l-2.387,1.378Z" transform="translate(-1104.254 -838.279)" fill="#fff"/>
          <path id="Trazado_162278" data-name="Trazado 162278" d="M1104.4,839.423l.642.371v3.182l-.642-.371Z" transform="translate(-1104.399 -838.051)" fill="#bbb"/>
          <path id="Trazado_162279" data-name="Trazado 162279" d="M1104.4,839.733l2.387-1.372.642.371-2.387,1.372Z" transform="translate(-1104.399 -838.361)" fill="#cecece"/>
        </g>
      </g>
      <g id="Grupo_154237" data-name="Grupo 154237" transform="translate(1044.889 806.684)">
        <path id="Trazado_162280" data-name="Trazado 162280" d="M1064.136,793.479l-18.391,10.62v54.428l18.391-10.612Z" transform="translate(-1044.639 -792.655)" fill="#ccc"/>
        <path id="Trazado_162281" data-name="Trazado 162281" d="M1046,856.313l-1.107-.824V801.061l1.107.824Z" transform="translate(-1044.889 -790.441)" fill="#a5a5a5"/>
        <path id="Trazado_162282" data-name="Trazado 162282" d="M1064.387,793.666l-1.107-.824-18.391,10.62,1.107.824Z" transform="translate(-1044.889 -792.842)" fill="#ededed"/>
        <path id="Trazado_162283" data-name="Trazado 162283" d="M1047.225,853.817l6.731-3.759V799.4l-6.731,3.758Z" transform="translate(-1044.207 -790.925)" fill="#a5a5a5"/>
        <path id="Trazado_162284" data-name="Trazado 162284" d="M1053.651,850.114l6.731-3.759V795.7l-6.731,3.758Z" transform="translate(-1042.33 -792.006)" fill="#a5a5a5"/>
      </g>
      <path id="Trazado_162285" data-name="Trazado 162285" d="M1193.956,763.837l-18.4,11.3v43.927l8.1-4.675c.906-6.253,4.717-12.758,9.285-15.4s8.379-.534,9.283,4.676l6.04-3.489V772.1A9.537,9.537,0,0,0,1193.956,763.837Z" transform="translate(38.16 4.995)" fill="#d1406b"/>
      <path id="Trazado_162286" data-name="Trazado 162286" d="M1186.346,765.89l-1.169.675v36.624l1.169-1.44Z" transform="translate(40.97 5.972)" fill="#b7325e"/>
      <g id="Grupo_154238" data-name="Grupo 154238" transform="translate(1221.813 802.846)">
        <path id="Trazado_162287" data-name="Trazado 162287" d="M1191.108,791.949c-4.14,2.39-7.595,8.286-8.416,13.953l-.868.5c.906-6.253,4.717-12.758,9.285-15.395s8.379-.535,9.283,4.675l-.868.5C1198.7,791.464,1195.247,789.56,1191.108,791.949Z" transform="translate(-1181.823 -789.871)" fill="#fff"/>
      </g>
      <path id="Trazado_162288" data-name="Trazado 162288" d="M1175.84,773.169s10.834-6.614,14.728-8.874a50.041,50.041,0,0,1,4.636-2.322s-.411-3.287-5.34-2.2c-5.411,1.19-14.024,4.872-14.024,4.872Z" transform="translate(38.243 4.12)" fill="#d1406b"/>
      <g id="Grupo_154239" data-name="Grupo 154239" transform="translate(1231.521 773.438)">
        <path id="Trazado_162289" data-name="Trazado 162289" d="M1190.113,775.931a6.023,6.023,0,0,1,2.505-4.786l5.133-2.964a1.671,1.671,0,0,1,1.456-.2,1.447,1.447,0,0,0-2.233-.572l-5.133,2.964a6.019,6.019,0,0,0-2.505,4.786v11.854a2.062,2.062,0,0,0,1.049,2.1,3.018,3.018,0,0,1-.273-1.322Z" transform="translate(-1189.336 -767.11)" fill="#383838"/>
        <path id="Trazado_162290" data-name="Trazado 162290" d="M1191.666,788.727l5.133-2.964a6.024,6.024,0,0,0,2.505-4.786V769.121a3.028,3.028,0,0,0-.273-1.32,1.671,1.671,0,0,0-1.456.2l-5.133,2.964a6.023,6.023,0,0,0-2.505,4.786v11.854a3.018,3.018,0,0,0,.273,1.322A1.672,1.672,0,0,0,1191.666,788.727Z" transform="translate(-1189.161 -766.934)" fill="#494949"/>
      </g>
      <path id="Trazado_162291" data-name="Trazado 162291" d="M1204.765,789.4l-7.161,4.113v3.767l7.161-4.13Z" transform="translate(44.599 12.838)" fill="#ccc"/>
      <path id="Trazado_162292" data-name="Trazado 162292" d="M1196.108,791.724v3.762l1.932,1.118v-3.767Z" transform="translate(44.162 13.516)" fill="#a5a5a5"/>
      <path id="Trazado_162293" data-name="Trazado 162293" d="M1196.108,792.79l6.151-3.457v-1.26l2.942,1.718-7.161,4.113Z" transform="translate(44.162 12.45)" fill="#ededed"/>
      <g id="Grupo_154240" data-name="Grupo 154240" transform="translate(1216.289 811.686)">
        <path id="Trazado_162294" data-name="Trazado 162294" d="M1178.045,801.556l2.387-1.378V797l-2.387,1.378Z" transform="translate(-1177.402 -796.631)" fill="#fff"/>
        <path id="Trazado_162295" data-name="Trazado 162295" d="M1177.547,797.775l.642.371v3.182l-.642-.371Z" transform="translate(-1177.547 -796.403)" fill="#bbb"/>
        <path id="Trazado_162296" data-name="Trazado 162296" d="M1177.547,798.085l2.387-1.372.642.371-2.387,1.372Z" transform="translate(-1177.547 -796.713)" fill="#cecece"/>
      </g>
      <g id="Grupo_154241" data-name="Grupo 154241" transform="translate(1088.256 827.241)">
        <path id="Trazado_162297" data-name="Trazado 162297" d="M1090.5,820.545l-12.042-6.961v19.571l12.042,6.981Z" transform="translate(-1078.454 -807.341)" fill="#dba763"/>
        <path id="Trazado_162298" data-name="Trazado 162298" d="M1089.249,808.752l-10.8,6.242,12.042,6.962V809.517Z" transform="translate(-1078.454 -808.752)" fill="#ffe1c0"/>
        <path id="Trazado_162299" data-name="Trazado 162299" d="M1082.184,820.462l2.891,1.678v-4.734l-2.891-1.68Z" transform="translate(-1077.364 -806.715)" fill="#4d4d4d"/>
        <path id="Trazado_162300" data-name="Trazado 162300" d="M1089.407,812.494l-7.223,4.176,2.891,1.685,4.332-2.507Z" transform="translate(-1077.364 -807.659)" fill="#6d6d6d"/>
        <path id="Trazado_162301" data-name="Trazado 162301" d="M1081.236,818.919v2.893l-2.081-1.205v-2.894Z" transform="translate(-1078.249 -806.135)" fill="#4d4d4d"/>
      </g>
      <g id="Grupo_154249" data-name="Grupo 154249" transform="translate(1072.151 843.021)">
        <g id="Grupo_154243" data-name="Grupo 154243" transform="translate(0 3.027)">
          <path id="Trazado_162302" data-name="Trazado 162302" d="M1078.948,845.536l0-8.935-12.963-7.494v8.917Z" transform="translate(-1065.989 -821.614)" fill="#dba763"/>
          <path id="Trazado_162303" data-name="Trazado 162303" d="M1076.019,845.536l0-8.935,12.963-7.494v8.917Z" transform="translate(-1063.06 -821.614)" fill="#e8b679"/>
          <path id="Trazado_162304" data-name="Trazado 162304" d="M1091.915,830.8l-12.963,7.494-12.963-7.494,12.958-7.492Z" transform="translate(-1065.989 -823.308)" fill="#ffe1c0"/>
          <g id="Grupo_154242" data-name="Grupo 154242" transform="translate(0.905 2.777)">
            <path id="Trazado_162305" data-name="Trazado 162305" d="M1069.719,835.985l2.891,1.678v-4.735l-2.891-1.679Z" transform="translate(-1065.805 -823.765)" fill="#4d4d4d"/>
            <path id="Trazado_162306" data-name="Trazado 162306" d="M1069.719,832.941l12.945-7.484,2.9,1.674-12.951,7.5Z" transform="translate(-1065.805 -825.457)" fill="#6d6d6d"/>
            <path id="Trazado_162307" data-name="Trazado 162307" d="M1075.677,840.785v-.834l-4.352-2.524v.846Z" transform="translate(-1065.337 -821.961)" fill="#4d4d4d"/>
            <path id="Trazado_162308" data-name="Trazado 162308" d="M1075.677,839.63V838.8l-4.352-2.524v.846Z" transform="translate(-1065.337 -822.298)" fill="#4d4d4d"/>
            <path id="Trazado_162309" data-name="Trazado 162309" d="M1068.771,834.442v2.894l-2.081-1.205v-2.894Z" transform="translate(-1066.69 -823.185)" fill="#4d4d4d"/>
            <path id="Trazado_162310" data-name="Trazado 162310" d="M1084.033,834.583V837.6l2.081-1.2v-3.015Z" transform="translate(-1061.625 -823.143)" fill="#4d4d4d"/>
            <path id="Trazado_162311" data-name="Trazado 162311" d="M1081.835,835.858v3.015l2.081-1.2v-3.015Z" transform="translate(-1062.267 -822.771)" fill="#4d4d4d"/>
            <path id="Trazado_162312" data-name="Trazado 162312" d="M1076.458,835.753v4.333l4.277-2.472v-4.339Z" transform="translate(-1063.838 -823.173)" fill="#fff"/>
            <path id="Trazado_162313" data-name="Trazado 162313" d="M1076.863,836.477v-.705l3.365-1.94v.694Z" transform="translate(-1063.719 -823.011)" fill="#4d4d4d"/>
          </g>
        </g>
        <g id="Grupo_154245" data-name="Grupo 154245" transform="translate(17.141 14.051)">
          <path id="Trazado_162314" data-name="Trazado 162314" d="M1090.233,843.092l-10.977-6.346v8.917l10.977,6.364Z" transform="translate(-1079.256 -830.407)" fill="#dba763"/>
          <path id="Trazado_162315" data-name="Trazado 162315" d="M1090.233,831.84l-10.977,6.338,10.977,6.346Z" transform="translate(-1079.256 -831.84)" fill="#ffe1c0"/>
          <g id="Grupo_154244" data-name="Grupo 154244" transform="translate(4.819 5.55)">
            <path id="Trazado_162316" data-name="Trazado 162316" d="M1082.985,843.624l2.891,1.678v-4.735l-2.891-1.679Z" transform="translate(-1082.985 -835.331)" fill="#4d4d4d"/>
            <path id="Trazado_162317" data-name="Trazado 162317" d="M1089.143,836.135l-6.158,3.557,2.891,1.685,3.267-1.888Z" transform="translate(-1082.985 -836.135)" fill="#6d6d6d"/>
          </g>
        </g>
        <g id="Grupo_154246" data-name="Grupo 154246" transform="translate(23.3 11.522)">
          <path id="Trazado_162318" data-name="Trazado 162318" d="M1088.84,834.814l-4.817-2.785v5.219l4.817,2.793Z" transform="translate(-1084.023 -829.256)" fill="#dba763"/>
          <path id="Trazado_162319" data-name="Trazado 162319" d="M1088.84,829.883l-4.817,2.781,4.817,2.785Z" transform="translate(-1084.023 -829.883)" fill="#ffe1c0"/>
          <path id="Trazado_162320" data-name="Trazado 162320" d="M1088.362,834.545l-2.7-1.57v2.752l2.7,1.569Z" transform="translate(-1083.545 -828.98)" fill="#4d4d4d"/>
        </g>
        <g id="Grupo_154248" data-name="Grupo 154248" transform="translate(4.454)">
          <path id="Trazado_162321" data-name="Trazado 162321" d="M1077.8,835.4l0-5.222-8.37-4.839v5.225Z" transform="translate(-1069.437 -819.689)" fill="#dba763"/>
          <path id="Trazado_162322" data-name="Trazado 162322" d="M1075.912,835.58l0-5.222,9.773-5.649v5.222Z" transform="translate(-1067.545 -819.872)" fill="#e8b679"/>
          <path id="Trazado_162323" data-name="Trazado 162323" d="M1087.58,825.8l-9.773,5.649-8.37-4.839,9.767-5.648Z" transform="translate(-1069.437 -820.965)" fill="#ffe1c0"/>
          <g id="Grupo_154247" data-name="Grupo 154247" transform="translate(4.933 5.988)">
            <path id="Trazado_162324" data-name="Trazado 162324" d="M1076.065,832.873v-.538l-2.81-1.63v.546Z" transform="translate(-1073.255 -824.109)" fill="#4d4d4d"/>
            <path id="Trazado_162325" data-name="Trazado 162325" d="M1076.065,832.128v-.538l-2.81-1.63v.546Z" transform="translate(-1073.255 -824.327)" fill="#4d4d4d"/>
            <path id="Trazado_162326" data-name="Trazado 162326" d="M1081.858,826.568V829l1.676-.969V825.6Z" transform="translate(-1070.742 -825.6)" fill="#4d4d4d"/>
          </g>
          <path id="Trazado_162327" data-name="Trazado 162327" d="M1076.422,830.063v2.9l4.277-2.472v-2.9Z" transform="translate(-1067.397 -819.032)" fill="#fff"/>
          <path id="Trazado_162328" data-name="Trazado 162328" d="M1076.828,830.787v-.706l3.365-1.94v.694Z" transform="translate(-1067.278 -818.87)" fill="#4d4d4d"/>
          <path id="Trazado_162329" data-name="Trazado 162329" d="M1071.074,829.027l2.891,1.678v-2.75l-2.891-1.679Z" transform="translate(-1068.959 -819.415)" fill="#4d4d4d"/>
          <path id="Trazado_162330" data-name="Trazado 162330" d="M1071.074,827.551l9.76-5.643,2.9,1.674-9.768,5.655Z" transform="translate(-1068.959 -820.69)" fill="#6d6d6d"/>
        </g>
      </g>
      <g id="Grupo_154250" data-name="Grupo 154250" transform="translate(1098.785 827.038)">
        <path id="Trazado_162331" data-name="Trazado 162331" d="M1086.6,809.233l18.391,10.62v54.428L1086.6,863.669Z" transform="translate(-1086.603 -808.409)" fill="#ccc"/>
        <path id="Trazado_162332" data-name="Trazado 162332" d="M1100.836,872.067l1.107-.824V816.814l-1.107.824Z" transform="translate(-1082.446 -806.195)" fill="#8e8e8e"/>
        <path id="Trazado_162333" data-name="Trazado 162333" d="M1086.6,809.419l1.107-.824,18.39,10.62-1.107.824Z" transform="translate(-1086.603 -808.595)" fill="#ededed"/>
        <path id="Trazado_162334" data-name="Trazado 162334" d="M1100.879,869.571l-6.731-3.759V815.158l6.731,3.759Z" transform="translate(-1084.399 -806.678)" fill="#a5a5a5"/>
        <path id="Trazado_162335" data-name="Trazado 162335" d="M1094.452,865.868l-6.731-3.759V811.455l6.731,3.759Z" transform="translate(-1086.276 -807.76)" fill="#a5a5a5"/>
      </g>
    </g>
    <path id="Trazado_162409" data-name="Trazado 162409" d="M409.606,79.086h-47.6a5.847,5.847,0,1,1,0-11.693h47.6a5.847,5.847,0,0,1,0,11.693" transform="translate(164.548 2482.39)" fill="#5263e2"/>
  </g>
</svg>
