<svg xmlns="http://www.w3.org/2000/svg" width="105" height="105" viewBox="0 0 105 105">
  <g id="_17" data-name="17" transform="translate(-600 -3114)">
    <circle id="Elipse_4967" data-name="Elipse 4967" cx="52.5" cy="52.5" r="52.5" transform="translate(600 3114)" fill="#5263e2"/>
    <path id="Trazado_163364" data-name="Trazado 163364" d="M-13-19.1l2.39-20H12.246v6.982H-3.25L-4.136-24.3a10.675,10.675,0,0,1,2.538-1,11.579,11.579,0,0,1,3.075-.432q5.828,0,8.956,3.451T13.562-12.6a13.876,13.876,0,0,1-1.678,6.808A11.536,11.536,0,0,1,7.17-1.1,14.88,14.88,0,0,1,0,.537,16.011,16.011,0,0,1-6.9-.979a12.382,12.382,0,0,1-5.049-4.159,10.106,10.106,0,0,1-1.8-5.97h9.077a5.134,5.134,0,0,0,1.37,3.4,4.347,4.347,0,0,0,3.25,1.26q4.565,0,4.565-6.754,0-6.244-5.586-6.244A5.574,5.574,0,0,0-5.8-17.407Z" transform="translate(653 3185)" fill="#fff"/>
  </g>
</svg>
