<svg xmlns="http://www.w3.org/2000/svg" xmlns:xlink="http://www.w3.org/1999/xlink" width="1199" height="451.001" viewBox="0 0 1199 451.001">
  <defs>
    <clipPath id="clip-path">
      <path id="Trazado_149789" data-name="Trazado 149789" d="M239.135,86.812a20,20,0,0,0-20,20v411a20,20,0,0,0,20,20h1159a20,20,0,0,0,20-20V306.446c-48.615-7.277-96.906,17.133-142.03,42.09-103.1,57.02-194.763,73.659-274.41-39.055-37.95-53.7-69.656-117.827-120.876-151.05-97.282-63.1-231.92,5.754-321.344-71.619Z" fill="none"/>
    </clipPath>
    <linearGradient id="linear-gradient" x1="-0.183" y1="1.147" x2="-0.182" y2="1.147" gradientUnits="objectBoundingBox">
      <stop offset="0" stop-color="#fed981"/>
      <stop offset="1" stop-color="#ffd061"/>
    </linearGradient>
    <linearGradient id="linear-gradient-2" x1="0.5" x2="0.5" y2="1.285" gradientUnits="objectBoundingBox">
      <stop offset="0" stop-color="#fed981"/>
      <stop offset="0.522" stop-color="#ff8578"/>
      <stop offset="1" stop-color="#5263e2"/>
    </linearGradient>
  </defs>
  <g id="Grupo_154542" data-name="Grupo 154542" transform="translate(-219.135 -92.449)">
    <g id="Grupo_154541" data-name="Grupo 154541">
      <path id="Trazado_149788" data-name="Trazado 149788" d="M239.135,86.811h1159a20,20,0,0,1,20,20v411a20,20,0,0,1-20,20h-1159a20,20,0,0,1-20-20v-411a20,20,0,0,1,20-20" transform="translate(0 5.638)" fill="#fff"/>
      <g id="Grupo_144919" data-name="Grupo 144919" transform="translate(0 5.638)">
        <g id="Grupo_144918" data-name="Grupo 144918" clip-path="url(#clip-path)">
          <rect id="Rectángulo_38455" data-name="Rectángulo 38455" width="1198.999" height="451" transform="translate(219.136 86.812)" fill="url(#linear-gradient)"/>
        </g>
      </g>
      <path id="Trazado_160111" data-name="Trazado 160111" d="M107,550.027H576.015c13.13-74.116,13.793-152.021-17.575-220.444-9.323-20.337-21.668-39.77-39.064-53.838-13.836-11.189-30.462-18.622-47.7-23.047-45.436-11.667-95.9-1.907-133.708,25.86-20.431,15-35.4,37.35-55.157,53.631-27.791,22.9-50.43,15.928-83.7,12.114-31.974-3.666-70.3-7.285-98.936,10.552-31.021,19.321-43.2,59.976-38.948,96.273S89.691,517.839,107,550.027Z" transform="translate(776.54 -56.039)" fill="#fff"/>
      <path id="Trazado_160112" data-name="Trazado 160112" d="M107,550.027H576.015c13.13-74.116,13.793-152.021-17.575-220.444-9.323-20.337-21.668-39.77-39.064-53.838-13.836-11.189-30.462-18.622-47.7-23.047-45.436-11.667-95.9-1.907-133.708,25.86-20.431,15-35.4,37.35-55.157,53.631-27.791,22.9-50.43,15.928-83.7,12.114-31.974-3.666-70.3-7.285-98.936,10.552-31.021,19.321-43.2,59.976-38.948,96.273S89.691,517.839,107,550.027Z" transform="translate(815.54 -45.04)" fill="#fff"/>
      <path id="Trazado_160067" data-name="Trazado 160067" d="M107,550.027H576.015c13.13-74.116,13.793-152.021-17.575-220.444-9.323-20.337-21.668-39.77-39.064-53.838-13.836-11.189-30.462-18.622-47.7-23.047-45.436-11.667-95.9-1.907-133.708,25.86-20.431,15-35.4,37.35-55.157,53.631-27.791,22.9-50.43,15.928-83.7,12.114-31.974-3.666-70.3-7.285-98.936,10.552-31.021,19.321-43.2,59.976-38.948,96.273S89.691,517.839,107,550.027Z" transform="translate(800.988 -45.039)" fill="url(#linear-gradient-2)"/>
    </g>
    <path id="Trazado_163360" data-name="Trazado 163360" d="M32.977,85.132H6.046a6.046,6.046,0,1,1,0-12.091H32.977a6.046,6.046,0,0,1,0,12.091" transform="translate(874 178.776)" fill="#f45742"/>
    <path id="Trazado_163361" data-name="Trazado 163361" d="M50.381,17.56A17.56,17.56,0,1,1,32.821,0a17.56,17.56,0,0,1,17.56,17.56" transform="translate(874 178.776)" fill="#43a99b"/>
  </g>
</svg>
