<svg xmlns="http://www.w3.org/2000/svg" width="328.58" height="512.441" viewBox="0 0 328.58 512.441">
  <g id="Grupo_154575" data-name="Grupo 154575" transform="translate(-205.71 -1451.088)">
    <g id="Grupo_154222" data-name="Grupo 154222" transform="translate(-265.871 1804.511)">
      <path id="Trazado_162135" data-name="Trazado 162135" d="M765.141,490.494s6.111,6.644,14.273,14.6c7.553,7.365,9.894,9.484,16.9,16.326,4.094,4,.722,7.668-7.08,7.368-6.86-.265-22.392-3.6-31.081-6.724-6.174-2.218-17.489-8.474-23.269-12.13a15.41,15.41,0,0,1-6.908-8.734V488.915Z" transform="translate(-85.884 -369.789)" fill="#4d4d4d"/>
      <path id="Trazado_162136" data-name="Trazado 162136" d="M567.612,466.7a102.329,102.329,0,0,0,12.07,13.664c7.553,7.365,9.783,10.275,16.47,19.071,1.525,2.006,2.415,7.737-5.387,7.437-6.86-.265-17.3-3.186-26-6.281-9.929-3.531-18.308-13.536-24.088-17.192s-8.327-11.733-8.327-11.733l3.993-12.106Z" transform="translate(0 -356.9)" fill="#4d4d4d"/>
      <path id="Trazado_162137" data-name="Trazado 162137" d="M573.651,58.933c-2.89-45.077,21.961-68.77,21.961-68.77-1.979-15.189,68.482,6.068,68.482,6.068s15.086,81.661,21.46,124.66c7.245,48.871,2.859,148.4,2.859,148.4s-.913,10.625-19.118,10.555c-13.969-.054-24.271-12.288-24.271-12.288l-1.446-113.27L627.4,73.96s-15.576,65.282-20.516,88.709c-5.254,24.921-25.395,98.663-25.395,98.663s-13.036,14.977-29.217,6.886-13-17.129-13-17.129,3.179-52.3,23.983-99.111C564.982,116.436,574.978,79.637,573.651,58.933Z" transform="translate(-2.927 -148.433)" fill="#5d588d"/>
      <path id="Trazado_162138" data-name="Trazado 162138" d="M736.479-205.693s10.074-.5,20.478,19.048S777.3-146.3,777.3-146.3s-15.146,2.167-31.617,17.336C723.149-149.33,719.469-196.175,736.479-205.693Z" transform="translate(-84.953 -64.853)" fill="#d1406b"/>
      <path id="Trazado_162139" data-name="Trazado 162139" d="M676.91-211.06s5.671,10.862,10.873,30.8,3.336,112.641,3.336,112.641-21.482,15.19-57.446,12.214c-21.383-1.77-32.292-15.011-32.292-15.011S588.6-161.2,590.329-174.2s28.944-43.553,28.944-43.553S655.244-219.584,676.91-211.06Z" transform="translate(-25.384 -59.486)" fill="#ef4f77"/>
      <g id="Grupo_154219" data-name="Grupo 154219" transform="translate(591.957 -353.422)">
        <path id="Trazado_162140" data-name="Trazado 162140" d="M674.13-244.344,678.309-220s-12.4,13.914-24.536,3.512S639.9-231.67,639.9-231.67l5.974-33.2Z" transform="translate(-639.175 314.547)" fill="#ffad97"/>
        <path id="Trazado_162141" data-name="Trazado 162141" d="M651.031-293.562c4.253,14,19.354,25.229,26.537,28.39,12.826,5.644,36.9-27.576,27.5-54.173-8.96-25.362-33.506-22.831-43.869-14.938C653.147-328.151,646.244-309.323,651.031-293.562Z" transform="translate(-643.368 347.415)" fill="#ffc5b3"/>
        <path id="Trazado_162142" data-name="Trazado 162142" d="M702.429-316.907c-4.273,4.359-10.505,9.2-23.364,7.08A51.8,51.8,0,0,1,661-316.473l-2.156,14.09a12.358,12.358,0,0,1-3.7-1.36c-.216-5.578-2.208-7.311-5.273-5.65-3.468,1.878-3.612,9.824-3.612,9.824a28.861,28.861,0,0,1-6.935-26.006c2.2-9.9,15.575-29.473,34.226-27.74s29.5,14.062,31.807,24.732A13.1,13.1,0,0,1,702.429-316.907Z" transform="translate(-638.604 353.422)" fill="#4d4d4d"/>
      </g>
      <g id="Grupo_154221" data-name="Grupo 154221" transform="translate(631.091 -233.639)">
        <path id="Trazado_162143" data-name="Trazado 162143" d="M786.109,86.453V-10.018L708.363-48.775v91Z" transform="translate(-708.363 99.898)" fill="#dba763"/>
        <path id="Trazado_162144" data-name="Trazado 162144" d="M846.948,86.453V-10.018l77.744-38.757v91Z" transform="translate(-769.202 99.898)" fill="#e8b679"/>
        <path id="Trazado_162145" data-name="Trazado 162145" d="M786.081,82.441l.028-97.3L708.363-59.8v97.19Z" transform="translate(-708.363 104.739)" fill="#dba763"/>
        <path id="Trazado_162146" data-name="Trazado 162146" d="M846.9,82.441l.028-97.3L924.67-59.8v97.19Z" transform="translate(-769.18 104.739)" fill="#e8b679"/>
        <path id="Trazado_162147" data-name="Trazado 162147" d="M863.853-94.967,786.109-50.023,708.363-94.967,786.081-139.9Z" transform="translate(-708.363 139.903)" fill="#ffe1c0"/>
        <g id="Grupo_154220" data-name="Grupo 154220" transform="translate(5.431 16.655)">
          <path id="Trazado_162148" data-name="Trazado 162148" d="M759.885-1.8,777.222,8.263v-28.4L759.885-30.206Z" transform="translate(-736.412 75.091)" fill="#4d4d4d"/>
          <path id="Trazado_162149" data-name="Trazado 162149" d="M759.885-65.33l77.636-44.884,17.373,10.039L777.222-55.223Z" transform="translate(-736.412 110.214)" fill="#6d6d6d"/>
          <path id="Trazado_162150" data-name="Trazado 162150" d="M808.164,153.176v-5l-26.1-15.137v5.075Z" transform="translate(-746.149 3.426)" fill="#4d4d4d"/>
          <path id="Trazado_162151" data-name="Trazado 162151" d="M808.164,137.232v-5l-26.1-15.137v5.075Z" transform="translate(-746.149 10.425)" fill="#4d4d4d"/>
          <path id="Trazado_162152" data-name="Trazado 162152" d="M730.526,82.387V99.74l-12.483-7.228V75.153Z" transform="translate(-718.043 28.838)" fill="#4d4d4d"/>
          <path id="Trazado_162153" data-name="Trazado 162153" d="M955.041,79.168V97.253l12.483-7.213V71.956Z" transform="translate(-822.086 30.241)" fill="#4d4d4d"/>
          <path id="Trazado_162154" data-name="Trazado 162154" d="M924.68,96.775V114.86l12.482-7.213V89.565Z" transform="translate(-808.758 22.511)" fill="#4d4d4d"/>
          <path id="Trazado_162155" data-name="Trazado 162155" d="M931.564-21.039V4.949L957.217-9.875V-35.9Z" transform="translate(-811.779 77.588)" fill="#fff"/>
          <path id="Trazado_162156" data-name="Trazado 162156" d="M937.165-12.361v-4.231L957.348-28.23v4.161Z" transform="translate(-814.238 74.223)" fill="#4d4d4d"/>
        </g>
      </g>
      <path id="Trazado_162157" data-name="Trazado 162157" d="M652.775-56.452S667.5-25.5,673.592-16.865s30.868,28.342,35.959,31.207,16.753,6.5,22.844,5.924,10.207,2.4,4.335,4.622a49.777,49.777,0,0,1-11.559,2.746s10.707,7.91,14.943,14.658c3.405,5.425,6.3,15.394-6.875,12.5-10.646-2.335-25.411-18.645-29.281-22.274-7.313-6.857-36.35-22.56-42.915-27.21-9.278-6.573-35.562-45.3-35.562-45.3S633.572-60.523,652.775-56.452Z" transform="translate(-40.887 -130.136)" fill="#ffc5b3"/>
      <path id="Trazado_162158" data-name="Trazado 162158" d="M591.6-160.832c7.632-6.149,23.964,14.673,32.633,27.676s15.611,32.462,15.611,32.462S629.4-93.11,620.051-87.213a151.624,151.624,0,0,1-16.117,8.688S565.413-139.739,591.6-160.832Z" transform="translate(-22.007 -84.061)" fill="#d1406b"/>
    </g>
    <path id="Trazado_162406" data-name="Trazado 162406" d="M409.606,79.086h-47.6a5.847,5.847,0,1,1,0-11.693h47.6a5.847,5.847,0,0,1,0,11.693" transform="translate(79.548 1456.629)" fill="#5263e2"/>
    <path id="Trazado_162407" data-name="Trazado 162407" d="M409.606,79.086h-47.6a5.847,5.847,0,1,1,0-11.693h47.6a5.847,5.847,0,0,1,0,11.693" transform="translate(118.838 1484.629)" fill="#43a99b"/>
    <path id="Trazado_162408" data-name="Trazado 162408" d="M409.606,79.086h-47.6a5.847,5.847,0,1,1,0-11.693h47.6a5.847,5.847,0,0,1,0,11.693" transform="translate(-150.452 1691.606)" fill="#43a99b"/>
  </g>
</svg>
