<svg xmlns="http://www.w3.org/2000/svg" width="199.844" height="145" viewBox="0 0 199.844 145">
  <g id="Grupo_154577" data-name="Grupo 154577" transform="translate(-1045.71 -2446.809)">
    <g id="Grupo_154265" data-name="Grupo 154265" transform="translate(-378.964 1673.242)">
      <g id="Grupo_154252" data-name="Grupo 154252" transform="translate(1426.311 799.694)">
        <path id="Trazado_162336" data-name="Trazado 162336" d="M1484.009,903.274l-57.7-33.361,140.61-81.25,57.6,33.4Z" transform="translate(-1426.312 -788.663)" fill="#ed8e2f"/>
        <path id="Trazado_162337" data-name="Trazado 162337" d="M1484.009,873.229v-4.261l-57.7-33.361v4.252Z" transform="translate(-1426.312 -754.357)" fill="#d87923"/>
        <path id="Trazado_162338" data-name="Trazado 162338" d="M1459.648,889.171v4.261l140.508-81.19v-4.281Z" transform="translate(-1401.95 -774.56)" fill="#c96a1c"/>
      </g>
      <g id="Grupo_154254" data-name="Grupo 154254" transform="translate(1541.12 773.567)">
        <path id="Trazado_162339" data-name="Trazado 162339" d="M1512.5,847.883l-.012-42.989,34.349-19.857v42.94Z" transform="translate(-1478.142 -765.185)" fill="#dba763"/>
        <path id="Trazado_162340" data-name="Trazado 162340" d="M1527.006,847.883l-.012-42.989-34.349-19.857v42.94Z" transform="translate(-1492.645 -765.185)" fill="#e8b679"/>
        <path id="Trazado_162341" data-name="Trazado 162341" d="M1492.645,793.42l34.349,19.857,34.349-19.857-34.337-19.853Z" transform="translate(-1492.645 -773.567)" fill="#ffe1c0"/>
        <g id="Grupo_154253" data-name="Grupo 154253" transform="translate(2.042 7.358)">
          <path id="Trazado_162342" data-name="Trazado 162342" d="M1528.194,801.825l-7.66,4.446V793.726l7.66-4.45Z" transform="translate(-1474.307 -769.445)" fill="#4d4d4d"/>
          <path id="Trazado_162343" data-name="Trazado 162343" d="M1542.683,797.649l-34.3-19.831-7.676,4.436,34.317,19.861Z" transform="translate(-1488.797 -777.818)" fill="#6d6d6d"/>
          <path id="Trazado_162344" data-name="Trazado 162344" d="M1515.121,821.551v-2.21l11.531-6.687V814.9Z" transform="translate(-1478.263 -752.361)" fill="#4d4d4d"/>
          <path id="Trazado_162345" data-name="Trazado 162345" d="M1515.121,819.268v-2.21l11.531-6.688v2.242Z" transform="translate(-1478.263 -754.03)" fill="#4d4d4d"/>
          <path id="Trazado_162346" data-name="Trazado 162346" d="M1527.765,807.56v7.668l5.515-3.194v-7.67Z" transform="translate(-1469.023 -758.419)" fill="#4d4d4d"/>
          <path id="Trazado_162347" data-name="Trazado 162347" d="M1499.34,807.092v7.991l-5.515-3.187v-7.99Z" transform="translate(-1493.825 -758.754)" fill="#4d4d4d"/>
          <path id="Trazado_162348" data-name="Trazado 162348" d="M1503.688,809.614V817.6l-5.515-3.187v-7.99Z" transform="translate(-1490.648 -756.911)" fill="#4d4d4d"/>
          <path id="Trazado_162349" data-name="Trazado 162349" d="M1505.159,795.024v11.482l-11.334-6.549v-11.5Z" transform="translate(-1493.825 -770.041)" fill="#fff"/>
          <path id="Trazado_162350" data-name="Trazado 162350" d="M1503.337,796.57V794.7l-8.918-5.142V791.4Z" transform="translate(-1493.391 -769.238)" fill="#4d4d4d"/>
        </g>
      </g>
      <g id="Grupo_154256" data-name="Grupo 154256" transform="translate(1498.445 817.65)">
        <path id="Trazado_162351" data-name="Trazado 162351" d="M1487.847,854.042l-.012-23.677,34.349-19.857v23.628Z" transform="translate(-1453.486 -790.654)" fill="#dba763"/>
        <path id="Trazado_162352" data-name="Trazado 162352" d="M1502.349,854.042l-.012-23.677-34.349-19.857v23.628Z" transform="translate(-1467.989 -790.654)" fill="#e8b679"/>
        <path id="Trazado_162353" data-name="Trazado 162353" d="M1467.989,818.89l34.349,19.857,34.349-19.857-34.337-19.853Z" transform="translate(-1467.989 -799.037)" fill="#ffe1c0"/>
        <g id="Grupo_154255" data-name="Grupo 154255" transform="translate(1.406 7.358)">
          <path id="Trazado_162354" data-name="Trazado 162354" d="M1503.536,827.3l-7.66,4.446V819.2l7.66-4.45Z" transform="translate(-1449.015 -794.916)" fill="#4d4d4d"/>
          <path id="Trazado_162355" data-name="Trazado 162355" d="M1518.026,823.119l-34.3-19.831-7.676,4.435,34.317,19.861Z" transform="translate(-1463.504 -803.289)" fill="#6d6d6d"/>
          <path id="Trazado_162356" data-name="Trazado 162356" d="M1490.464,835.864v-2.21l11.531-6.687v2.242Z" transform="translate(-1452.971 -785.985)" fill="#4d4d4d"/>
          <path id="Trazado_162357" data-name="Trazado 162357" d="M1490.464,833.581v-2.21l11.531-6.688v2.242Z" transform="translate(-1452.971 -787.654)" fill="#4d4d4d"/>
          <path id="Trazado_162358" data-name="Trazado 162358" d="M1503.108,821.873v7.668l5.515-3.194v-7.67Z" transform="translate(-1443.731 -792.043)" fill="#4d4d4d"/>
          <path id="Trazado_162359" data-name="Trazado 162359" d="M1474.316,822.149v7.99l-5.515-3.187v-7.989Z" transform="translate(-1468.801 -791.834)" fill="#4d4d4d"/>
          <path id="Trazado_162360" data-name="Trazado 162360" d="M1478.664,824.67v7.99l-5.515-3.187v-7.989Z" transform="translate(-1465.624 -789.991)" fill="#4d4d4d"/>
          <path id="Trazado_162361" data-name="Trazado 162361" d="M1491.758,825.32V836.8l-11.334-6.55v-11.5Z" transform="translate(-1460.307 -791.985)" fill="#fff"/>
          <path id="Trazado_162362" data-name="Trazado 162362" d="M1489.935,826.865V825l-8.917-5.142v1.839Z" transform="translate(-1459.873 -791.183)" fill="#4d4d4d"/>
        </g>
      </g>
      <g id="Grupo_154258" data-name="Grupo 154258" transform="translate(1437.936 835.102)">
        <path id="Trazado_162363" data-name="Trazado 162363" d="M1461.6,869.153l-.012-23.677,34.349-19.857v23.628Z" transform="translate(-1412.154 -797.064)" fill="#dba763"/>
        <path id="Trazado_162364" data-name="Trazado 162364" d="M1482.478,872.83l-.012-23.677-49.438-28.565v23.628Z" transform="translate(-1433.028 -800.741)" fill="#e8b679"/>
        <path id="Trazado_162365" data-name="Trazado 162365" d="M1433.028,828.968l49.438,28.564,34.349-19.857-49.453-28.554Z" transform="translate(-1433.028 -809.121)" fill="#ffe1c0"/>
        <g id="Grupo_154257" data-name="Grupo 154257" transform="translate(1.427 7.355)">
          <path id="Trazado_162366" data-name="Trazado 162366" d="M1477.294,842.406l-7.66,4.446V834.307l7.66-4.45Z" transform="translate(-1407.705 -801.322)" fill="#4d4d4d"/>
          <path id="Trazado_162367" data-name="Trazado 162367" d="M1498.162,841.905l-49.406-28.535-7.679,4.439,49.425,28.562Z" transform="translate(-1428.573 -813.37)" fill="#6d6d6d"/>
          <path id="Trazado_162368" data-name="Trazado 162368" d="M1463.079,852.263v-2.21l11.531-6.687v2.241Z" transform="translate(-1412.495 -791.45)" fill="#4d4d4d"/>
          <path id="Trazado_162369" data-name="Trazado 162369" d="M1463.079,849.98V847.77l11.531-6.688v2.242Z" transform="translate(-1412.495 -793.119)" fill="#4d4d4d"/>
          <path id="Trazado_162370" data-name="Trazado 162370" d="M1439.368,831.7v7.99l-5.515-3.187v-7.99Z" transform="translate(-1433.853 -802.306)" fill="#4d4d4d"/>
          <path id="Trazado_162371" data-name="Trazado 162371" d="M1443.716,834.217v7.99l-5.515-3.187v-7.99Z" transform="translate(-1430.675 -800.464)" fill="#4d4d4d"/>
          <path id="Trazado_162372" data-name="Trazado 162372" d="M1448.121,836.748v7.991l-5.515-3.187v-7.989Z" transform="translate(-1427.456 -798.614)" fill="#4d4d4d"/>
          <path id="Trazado_162373" data-name="Trazado 162373" d="M1465.516,840.43v11.483l-11.334-6.55v-11.5Z" transform="translate(-1418.997 -798.392)" fill="#fff"/>
          <path id="Trazado_162374" data-name="Trazado 162374" d="M1463.693,841.976v-1.869l-8.917-5.142V836.8Z" transform="translate(-1418.563 -797.589)" fill="#4d4d4d"/>
        </g>
      </g>
      <g id="Grupo_154260" data-name="Grupo 154260" transform="translate(1451.3 829.095)">
        <path id="Trazado_162375" data-name="Trazado 162375" d="M1459.2,842.971l-.008-13.86,22.179-12.822v13.829Z" transform="translate(-1427.271 -797.876)" fill="#dba763"/>
        <path id="Trazado_162376" data-name="Trazado 162376" d="M1472.679,845.344l-.008-13.86-31.922-18.444v13.829Z" transform="translate(-1440.749 -800.249)" fill="#e8b679"/>
        <path id="Trazado_162377" data-name="Trazado 162377" d="M1440.749,818.465l31.922,18.443,22.179-12.822-31.931-18.437Z" transform="translate(-1440.749 -805.65)" fill="#ffe1c0"/>
        <g id="Grupo_154259" data-name="Grupo 154259" transform="translate(1.072 15.825)">
          <path id="Trazado_162378" data-name="Trazado 162378" d="M1460.153,832.668v-1.427l7.446-4.318v1.447Z" transform="translate(-1427.642 -805.929)" fill="#4d4d4d"/>
          <path id="Trazado_162379" data-name="Trazado 162379" d="M1460.153,831.193v-1.427l7.446-4.318V826.9Z" transform="translate(-1427.642 -807.006)" fill="#4d4d4d"/>
          <path id="Trazado_162380" data-name="Trazado 162380" d="M1445.81,817.359v6.436l-4.442-2.567v-6.435Z" transform="translate(-1441.369 -814.793)" fill="#4d4d4d"/>
          <path id="Trazado_162381" data-name="Trazado 162381" d="M1449.313,819.39v6.436l-4.442-2.567v-6.435Z" transform="translate(-1438.809 -813.309)" fill="#4d4d4d"/>
        </g>
        <path id="Trazado_162382" data-name="Trazado 162382" d="M1462.975,827.315V835l-11.334-6.55v-7.7Z" transform="translate(-1432.79 -794.614)" fill="#fff"/>
        <path id="Trazado_162383" data-name="Trazado 162383" d="M1461.153,828.86v-1.87l-8.917-5.141v1.838Z" transform="translate(-1432.356 -793.812)" fill="#4d4d4d"/>
        <path id="Trazado_162384" data-name="Trazado 162384" d="M1472,825.451l-7.66,4.447v-7.288l7.66-4.45Z" transform="translate(-1423.507 -796.508)" fill="#4d4d4d"/>
        <path id="Trazado_162385" data-name="Trazado 162385" d="M1485.483,825.945,1453.6,807.505l-7.7,4.453,31.925,18.453Z" transform="translate(-1436.987 -804.294)" fill="#6d6d6d"/>
      </g>
      <g id="Grupo_154262" data-name="Grupo 154262" transform="translate(1507.264 809.63)">
        <path id="Trazado_162386" data-name="Trazado 162386" d="M1488.054,829.708l-.008-13.836,22.178-12.822v13.845Z" transform="translate(-1462.15 -788.085)" fill="#dba763"/>
        <path id="Trazado_162387" data-name="Trazado 162387" d="M1498.989,830.615l-.008-13.836-25.9-14.969v13.836Z" transform="translate(-1473.084 -788.992)" fill="#e8b679"/>
        <path id="Trazado_162388" data-name="Trazado 162388" d="M1473.084,807.221l25.9,14.969,22.178-12.822L1495.278,794.4Z" transform="translate(-1473.084 -794.403)" fill="#ffe1c0"/>
        <g id="Grupo_154261" data-name="Grupo 154261" transform="translate(1.108 15.868)">
          <path id="Trazado_162389" data-name="Trazado 162389" d="M1489.006,819.415v-1.427l7.446-4.318v1.447Z" transform="translate(-1462.557 -796.191)" fill="#4d4d4d"/>
          <path id="Trazado_162390" data-name="Trazado 162390" d="M1489.006,817.941v-1.427l7.446-4.318v1.447Z" transform="translate(-1462.557 -797.269)" fill="#4d4d4d"/>
          <path id="Trazado_162391" data-name="Trazado 162391" d="M1478.166,806.138v6.436l-4.442-2.567v-6.435Z" transform="translate(-1473.724 -803.571)" fill="#4d4d4d"/>
        </g>
        <path id="Trazado_162392" data-name="Trazado 162392" d="M1491.829,814.063v7.681l-11.334-6.549v-7.7Z" transform="translate(-1467.669 -784.833)" fill="#fff"/>
        <path id="Trazado_162393" data-name="Trazado 162393" d="M1490.006,815.608v-1.87l-8.917-5.142v1.839Z" transform="translate(-1467.234 -784.031)" fill="#4d4d4d"/>
        <path id="Trazado_162394" data-name="Trazado 162394" d="M1500.857,812.2l-7.66,4.446v-7.288l7.66-4.45Z" transform="translate(-1458.386 -786.728)" fill="#4d4d4d"/>
        <path id="Trazado_162395" data-name="Trazado 162395" d="M1511.785,811.221l-25.861-14.954-7.681,4.436,25.883,14.984Z" transform="translate(-1469.314 -793.042)" fill="#6d6d6d"/>
      </g>
      <g id="Grupo_154264" data-name="Grupo 154264" transform="translate(1459.099 822.867)">
        <path id="Trazado_162396" data-name="Trazado 162396" d="M1455.479,827.458l-.006-10.686,15.27-8.8v10.693Z" transform="translate(-1437.789 -797.727)" fill="#dba763"/>
        <path id="Trazado_162397" data-name="Trazado 162397" d="M1462.946,828.062l-.006-10.687-17.684-10.234v10.687Z" transform="translate(-1445.256 -798.331)" fill="#e8b679"/>
        <path id="Trazado_162398" data-name="Trazado 162398" d="M1445.256,810.862,1462.94,821.1l15.27-8.8-17.717-10.242Z" transform="translate(-1445.256 -802.052)" fill="#ffe1c0"/>
        <g id="Grupo_154263" data-name="Grupo 154263" transform="translate(1.685 12.091)">
          <path id="Trazado_162399" data-name="Trazado 162399" d="M1456.215,819.973v-1.1l5.751-3.335v1.118Z" transform="translate(-1438.933 -804.289)" fill="#4d4d4d"/>
          <path id="Trazado_162400" data-name="Trazado 162400" d="M1456.215,818.835v-1.1l5.751-3.335v1.118Z" transform="translate(-1438.933 -805.121)" fill="#4d4d4d"/>
          <path id="Trazado_162401" data-name="Trazado 162401" d="M1449.66,811.02v4.971l-3.431-1.983v-4.97Z" transform="translate(-1446.229 -809.038)" fill="#4d4d4d"/>
        </g>
        <path id="Trazado_162402" data-name="Trazado 162402" d="M1453.11,812.677v5.883l-7.13-4.121v-5.866Z" transform="translate(-1444.727 -797.286)" fill="#fff"/>
        <path id="Trazado_162403" data-name="Trazado 162403" d="M1451.7,813.509v-1.1l-5.257-3.031v1.084Z" transform="translate(-1444.391 -796.699)" fill="#4d4d4d"/>
        <path id="Trazado_162404" data-name="Trazado 162404" d="M1463.383,809.434l-3.932,2.284v5.629l3.932-2.282Z" transform="translate(-1434.882 -796.657)" fill="#4d4d4d"/>
        <path id="Trazado_162405" data-name="Trazado 162405" d="M1470.855,813.745l-17.677-10.211-3.951,2.271,17.7,10.236Z" transform="translate(-1442.354 -800.968)" fill="#6d6d6d"/>
      </g>
    </g>
    <path id="Trazado_162410" data-name="Trazado 162410" d="M409.606,79.086h-47.6a5.847,5.847,0,1,1,0-11.693h47.6a5.847,5.847,0,0,1,0,11.693" transform="translate(689.548 2399.39)" fill="#5263e2"/>
  </g>
</svg>
