<svg xmlns="http://www.w3.org/2000/svg" width="105" height="105" viewBox="0 0 105 105">
  <g id="_15" data-name="15" transform="translate(-600 -2977)">
    <circle id="Elipse_4964" data-name="Elipse 4964" cx="52.5" cy="52.5" r="52.5" transform="translate(600 2977)" fill="#5263e2"/>
    <path id="Trazado_163361" data-name="Trazado 163361" d="M13.75,0H-13.535V-5.908L-.967-19.121q4.646-5.291,4.646-8.406a5.847,5.847,0,0,0-1.1-3.84,3.931,3.931,0,0,0-3.2-1.316,3.98,3.98,0,0,0-3.357,1.759,7.229,7.229,0,0,0-1.289,4.391h-9.077a12.841,12.841,0,0,1,1.8-6.647,12.618,12.618,0,0,1,5-4.767A14.838,14.838,0,0,1-.4-39.666q6.338,0,9.762,2.927t3.424,8.406a12.206,12.206,0,0,1-.859,4.5,19.727,19.727,0,0,1-2.672,4.592A67.311,67.311,0,0,1,3.411-12.81L-1.638-6.982H13.75Z" transform="translate(653 3049)" fill="#fff"/>
  </g>
</svg>
