<svg xmlns="http://www.w3.org/2000/svg" width="105" height="105" viewBox="0 0 105 105">
  <g id="_16" data-name="16" transform="translate(-1020 -2977)">
    <circle id="_16-2" data-name="16" cx="52.5" cy="52.5" r="52.5" transform="translate(1020 2977)" fill="#5263e2"/>
    <path id="Trazado_163362" data-name="Trazado 163362" d="M-5.264-23.337h4.27q5.076,0,5.076-4.968a4.3,4.3,0,0,0-1.208-3.156A4.583,4.583,0,0,0-.537-32.683a4.906,4.906,0,0,0-3.129,1.047A3.2,3.2,0,0,0-5-29.031h-9.05a9.264,9.264,0,0,1,1.719-5.505A11.35,11.35,0,0,1-7.56-38.309a16.3,16.3,0,0,1,6.7-1.356q6.526,0,10.259,2.981a9.91,9.91,0,0,1,3.733,8.191,8.259,8.259,0,0,1-1.544,4.767,11.006,11.006,0,0,1-4.5,3.639,10.513,10.513,0,0,1,4.888,3.424,9.017,9.017,0,0,1,1.772,5.68A10.09,10.09,0,0,1,9.722-2.6Q5.693.537-.859.537A17.341,17.341,0,0,1-7.99-.927a11.171,11.171,0,0,1-4.982-4.055,10.543,10.543,0,0,1-1.692-5.895h9.1a4.075,4.075,0,0,0,1.45,3.115A5.12,5.12,0,0,0-.537-6.445,5.363,5.363,0,0,0,3.276-7.775a4.443,4.443,0,0,0,1.423-3.4q0-2.954-1.477-4.189A6.175,6.175,0,0,0-.859-16.6h-4.4Z" transform="translate(1072 3049)" fill="#fff"/>
  </g>
</svg>
