<svg xmlns="http://www.w3.org/2000/svg" width="105" height="105" viewBox="0 0 105 105">
  <g id="_18" data-name="18" transform="translate(-1020 -3114)">
    <circle id="Elipse_4966" data-name="Elipse 4966" cx="52.5" cy="52.5" r="52.5" transform="translate(1020 3114)" fill="#5263e2"/>
    <path id="Trazado_163365" data-name="Trazado 163365" d="M8.325-39.666v7.117h-.4a13.587,13.587,0,0,0-8.339,2.43,10.262,10.262,0,0,0-4.015,6.754A10.583,10.583,0,0,1,3.3-26.372a9.872,9.872,0,0,1,8.083,3.706q3.008,3.706,3.008,9.722A13.688,13.688,0,0,1,12.635-6.1,12.551,12.551,0,0,1,7.721-1.222a14.122,14.122,0,0,1-7,1.759A14.6,14.6,0,0,1-6.714-1.356a13.017,13.017,0,0,1-5.1-5.411,17.819,17.819,0,0,1-1.88-8.11V-18.5A22.573,22.573,0,0,1-11.1-29.366a18.788,18.788,0,0,1,7.4-7.56A21.153,21.153,0,0,1,6.956-39.666ZM.161-19.39a5.194,5.194,0,0,0-3.008.829,5.271,5.271,0,0,0-1.8,2.033v2.7q0,7.381,5.129,7.381A4.166,4.166,0,0,0,3.934-8.291a7.5,7.5,0,0,0,1.383-4.627,7.361,7.361,0,0,0-1.41-4.667A4.516,4.516,0,0,0,.161-19.39Z" transform="translate(1072 3185)" fill="#fff"/>
  </g>
</svg>
